<?xml version="1.0" encoding="UTF-8" standalone="no"?><!DOCTYPE svg PUBLIC "-//W3C//DTD SVG 1.1//EN" "http://www.w3.org/Graphics/SVG/1.1/DTD/svg11.dtd"><svg width="100%" height="100%" viewBox="0 0 120 234" version="1.1" xmlns="http://www.w3.org/2000/svg" xmlns:xlink="http://www.w3.org/1999/xlink" xml:space="preserve" xmlns:serif="http://www.serif.com/" style="fill-rule:evenodd;clip-rule:evenodd;stroke-linejoin:round;stroke-miterlimit:1.5;"><g><g id="Group-1" serif:id="Group 1"><g id="Group-11" serif:id="Group 1"><path d="M119.857,50.767l0,18.054" style="fill:none;stroke:#6fc9ca;stroke-width:9.75px;"/><path d="M119.857,68.821l-15.634,9.026" style="fill:none;stroke:#6fc9ca;stroke-width:9.75px;"/><path d="M119.857,68.821l15.635,9.026" style="fill:none;stroke:#6fc9ca;stroke-width:9.75px;"/></g><g id="Group-12" serif:id="Group 1"><path d="M119.857,80.767l0,18.054" style="fill:none;stroke:#6fc9ca;stroke-width:9.75px;"/><path d="M119.857,98.821l-15.634,9.026" style="fill:none;stroke:#6fc9ca;stroke-width:9.75px;"/><path d="M119.857,98.821l15.635,9.026" style="fill:none;stroke:#6fc9ca;stroke-width:9.75px;"/></g><g id="Group-13" serif:id="Group 1"><path d="M119.857,110.767l0,18.054" style="fill:none;stroke:#6fc9ca;stroke-width:9.75px;"/><path d="M119.857,128.821l-15.634,9.026" style="fill:none;stroke:#6fc9ca;stroke-width:9.75px;"/><path d="M119.857,128.821l15.635,9.026" style="fill:none;stroke:#6fc9ca;stroke-width:9.75px;"/></g><g id="Group-14" serif:id="Group 1"><path d="M119.857,140.767l0,18.054" style="fill:none;stroke:#6fc9ca;stroke-width:9.75px;"/><path d="M119.857,158.821l-15.634,9.026" style="fill:none;stroke:#6fc9ca;stroke-width:9.75px;"/><path d="M119.857,158.821l15.635,9.026" style="fill:none;stroke:#6fc9ca;stroke-width:9.75px;"/></g><g id="Group-15" serif:id="Group 1"><path d="M89.857,65.767l0,18.054" style="fill:none;stroke:#6fc9ca;stroke-width:9.75px;"/><path d="M89.857,83.821l-15.634,9.026" style="fill:none;stroke:#6fc9ca;stroke-width:9.75px;"/><path d="M89.857,83.821l15.635,9.026" style="fill:none;stroke:#6fc9ca;stroke-width:9.75px;"/></g><g id="Group-16" serif:id="Group 1"><path d="M89.857,95.767l0,18.054" style="fill:none;stroke:#6fc9ca;stroke-width:9.75px;"/><path d="M89.857,113.821l-15.634,9.026" style="fill:none;stroke:#6fc9ca;stroke-width:9.75px;"/><path d="M89.857,113.821l15.635,9.026" style="fill:none;stroke:#6fc9ca;stroke-width:9.75px;"/></g><g id="Group-17" serif:id="Group 1"><path d="M89.857,125.767l0,18.054" style="fill:none;stroke:#6fc9ca;stroke-width:9.75px;"/><path d="M89.857,143.821l-15.634,9.026" style="fill:none;stroke:#6fc9ca;stroke-width:9.75px;"/><path d="M89.857,143.821l15.635,9.026" style="fill:none;stroke:#6fc9ca;stroke-width:9.75px;"/></g><g id="Group-18" serif:id="Group 1"><path d="M89.857,155.767l0,18.054" style="fill:none;stroke:#6fc9ca;stroke-width:9.75px;"/><path d="M89.857,173.821l-15.634,9.026" style="fill:none;stroke:#6fc9ca;stroke-width:9.75px;"/><path d="M89.857,173.821l15.635,9.026" style="fill:none;stroke:#6fc9ca;stroke-width:9.75px;"/></g><g id="Group-19" serif:id="Group 1"><path d="M59.857,50.767l0,18.054" style="fill:none;stroke:#6fc9ca;stroke-width:9.75px;"/><path d="M59.857,68.821l-15.634,9.026" style="fill:none;stroke:#6fc9ca;stroke-width:9.75px;"/><path d="M59.857,68.821l15.635,9.026" style="fill:none;stroke:#6fc9ca;stroke-width:9.75px;"/></g><g id="Group-110" serif:id="Group 1"><path d="M59.857,80.767l0,18.054" style="fill:none;stroke:#6fc9ca;stroke-width:9.75px;"/><path d="M59.857,98.821l-15.634,9.026" style="fill:none;stroke:#6fc9ca;stroke-width:9.75px;"/><path d="M59.857,98.821l15.635,9.026" style="fill:none;stroke:#6fc9ca;stroke-width:9.75px;"/></g><g id="Group-111" serif:id="Group 1"><path d="M59.857,110.767l0,18.054" style="fill:none;stroke:#6fc9ca;stroke-width:9.75px;"/><path d="M59.857,128.821l-15.634,9.026" style="fill:none;stroke:#6fc9ca;stroke-width:9.75px;"/><path d="M59.857,128.821l15.635,9.026" style="fill:none;stroke:#6fc9ca;stroke-width:9.75px;"/></g><g id="Group-112" serif:id="Group 1"><path d="M59.857,140.767l0,18.054" style="fill:none;stroke:#6fc9ca;stroke-width:9.75px;"/><path d="M59.857,158.821l-15.634,9.026" style="fill:none;stroke:#6fc9ca;stroke-width:9.75px;"/><path d="M59.857,158.821l15.635,9.026" style="fill:none;stroke:#6fc9ca;stroke-width:9.75px;"/></g><g id="Group-113" serif:id="Group 1"><path d="M29.857,65.767l0,18.054" style="fill:none;stroke:#6fc9ca;stroke-width:9.75px;"/><path d="M29.857,83.821l-15.634,9.026" style="fill:none;stroke:#6fc9ca;stroke-width:9.75px;"/><path d="M29.857,83.821l15.635,9.026" style="fill:none;stroke:#6fc9ca;stroke-width:9.75px;"/></g><g id="Group-114" serif:id="Group 1"><path d="M29.857,95.767l0,18.054" style="fill:none;stroke:#6fc9ca;stroke-width:9.75px;"/><path d="M29.857,113.821l-15.634,9.026" style="fill:none;stroke:#6fc9ca;stroke-width:9.75px;"/><path d="M29.857,113.821l15.635,9.026" style="fill:none;stroke:#6fc9ca;stroke-width:9.75px;"/></g><g id="Group-115" serif:id="Group 1"><path d="M29.857,125.767l0,18.054" style="fill:none;stroke:#6fc9ca;stroke-width:9.75px;"/><path d="M29.857,143.821l-15.634,9.026" style="fill:none;stroke:#6fc9ca;stroke-width:9.75px;"/><path d="M29.857,143.821l15.635,9.026" style="fill:none;stroke:#6fc9ca;stroke-width:9.75px;"/></g><g id="Group-116" serif:id="Group 1"><path d="M29.857,155.767l0,18.054" style="fill:none;stroke:#6fc9ca;stroke-width:9.75px;"/><path d="M29.857,173.821l-15.634,9.026" style="fill:none;stroke:#6fc9ca;stroke-width:9.75px;"/><path d="M29.857,173.821l15.635,9.026" style="fill:none;stroke:#6fc9ca;stroke-width:9.75px;"/></g><g id="Group-117" serif:id="Group 1"><path d="M-0.143,50.767l0,18.054" style="fill:none;stroke:#6fc9ca;stroke-width:9.75px;"/><path d="M-0.143,68.821l-15.634,9.026" style="fill:none;stroke:#6fc9ca;stroke-width:9.75px;"/><path d="M-0.143,68.821l15.635,9.026" style="fill:none;stroke:#6fc9ca;stroke-width:9.75px;"/></g><g id="Group-118" serif:id="Group 1"><path d="M-0.143,80.767l0,18.054" style="fill:none;stroke:#6fc9ca;stroke-width:9.75px;"/><path d="M-0.143,98.821l-15.634,9.026" style="fill:none;stroke:#6fc9ca;stroke-width:9.75px;"/><path d="M-0.143,98.821l15.635,9.026" style="fill:none;stroke:#6fc9ca;stroke-width:9.75px;"/></g><g id="Group-119" serif:id="Group 1"><path d="M-0.143,110.767l0,18.054" style="fill:none;stroke:#6fc9ca;stroke-width:9.75px;"/><path d="M-0.143,128.821l-15.634,9.026" style="fill:none;stroke:#6fc9ca;stroke-width:9.75px;"/><path d="M-0.143,128.821l15.635,9.026" style="fill:none;stroke:#6fc9ca;stroke-width:9.75px;"/></g><g id="Group-120" serif:id="Group 1"><path d="M-0.143,140.767l0,18.054" style="fill:none;stroke:#6fc9ca;stroke-width:9.75px;"/><path d="M-0.143,158.821l-15.634,9.026" style="fill:none;stroke:#6fc9ca;stroke-width:9.75px;"/><path d="M-0.143,158.821l15.635,9.026" style="fill:none;stroke:#6fc9ca;stroke-width:9.75px;"/></g></g><g id="Layer1"><g id="Group-121" serif:id="Group 1"><path d="M59.857,178.267l0,18.054" style="fill:none;stroke:#6fc9ca;stroke-width:9.75px;"/><path d="M59.857,196.321l-15.634,9.026" style="fill:none;stroke:#6fc9ca;stroke-width:9.75px;"/><path d="M59.857,196.321l15.635,9.026" style="fill:none;stroke:#6fc9ca;stroke-width:9.75px;"/></g><g id="Group-122" serif:id="Group 1"><path d="M119.857,178.267l0,18.054" style="fill:none;stroke:#6fc9ca;stroke-width:9.75px;"/><path d="M119.857,196.321l-15.634,9.026" style="fill:none;stroke:#6fc9ca;stroke-width:9.75px;"/><path d="M119.857,196.321l15.635,9.026" style="fill:none;stroke:#6fc9ca;stroke-width:9.75px;"/></g><g id="Group-123" serif:id="Group 1"><path d="M-0.143,178.267l0,18.054" style="fill:none;stroke:#6fc9ca;stroke-width:9.75px;"/><path d="M-0.143,196.321l-15.634,9.026" style="fill:none;stroke:#6fc9ca;stroke-width:9.75px;"/><path d="M-0.143,196.321l15.635,9.026" style="fill:none;stroke:#6fc9ca;stroke-width:9.75px;"/></g><g id="Group-124" serif:id="Group 1"><path d="M89.857,28.267l0,18.054" style="fill:none;stroke:#6fc9ca;stroke-width:9.75px;"/><path d="M89.857,46.321l-15.634,9.026" style="fill:none;stroke:#6fc9ca;stroke-width:9.75px;"/><path d="M89.857,46.321l15.635,9.026" style="fill:none;stroke:#6fc9ca;stroke-width:9.75px;"/></g><g id="Group-125" serif:id="Group 1"><path d="M29.857,28.267l0,18.054" style="fill:none;stroke:#6fc9ca;stroke-width:9.75px;"/><path d="M29.857,46.321l-15.634,9.026" style="fill:none;stroke:#6fc9ca;stroke-width:9.75px;"/><path d="M29.857,46.321l15.635,9.026" style="fill:none;stroke:#6fc9ca;stroke-width:9.75px;"/></g><g id="Group-126" serif:id="Group 1"><path d="M29.857,200.767l0,18.054" style="fill:none;stroke:#6fc9ca;stroke-width:9.75px;"/><path d="M29.857,218.821l-15.634,9.026" style="fill:none;stroke:#6fc9ca;stroke-width:9.75px;"/><path d="M29.857,218.821l15.635,9.026" style="fill:none;stroke:#6fc9ca;stroke-width:9.75px;"/></g><g id="Group-127" serif:id="Group 1"><path d="M-0.143,5.767l0,18.054" style="fill:none;stroke:#6fc9ca;stroke-width:9.75px;"/><path d="M-0.143,23.821l-15.634,9.026" style="fill:none;stroke:#6fc9ca;stroke-width:9.75px;"/><path d="M-0.143,23.821l15.635,9.026" style="fill:none;stroke:#6fc9ca;stroke-width:9.75px;"/></g><g id="Group-128" serif:id="Group 1"><path d="M119.857,5.767l0,18.054" style="fill:none;stroke:#6fc9ca;stroke-width:9.75px;"/><path d="M119.857,23.821l-15.634,9.026" style="fill:none;stroke:#6fc9ca;stroke-width:9.75px;"/><path d="M119.857,23.821l15.635,9.026" style="fill:none;stroke:#6fc9ca;stroke-width:9.75px;"/></g></g></g></svg>