<?xml version="1.0" encoding="UTF-8" standalone="no"?><!DOCTYPE svg PUBLIC "-//W3C//DTD SVG 1.1//EN" "http://www.w3.org/Graphics/SVG/1.1/DTD/svg11.dtd"><svg width="100%" height="100%" viewBox="0 0 120 234" version="1.1" xmlns="http://www.w3.org/2000/svg" xmlns:xlink="http://www.w3.org/1999/xlink" xml:space="preserve" xmlns:serif="http://www.serif.com/" style="fill-rule:evenodd;clip-rule:evenodd;stroke-linejoin:round;stroke-miterlimit:1.5;"><g id="Group-1" serif:id="Group 1"><g id="Group-11" serif:id="Group 1"><path d="M134.619,82.929l-15.635,9.026" style="fill:none;stroke:#6fc9ca;stroke-width:9.75px;"/></g><g id="Group-12" serif:id="Group 1"><path d="M134.619,112.929l-15.635,9.026" style="fill:none;stroke:#6fc9ca;stroke-width:9.75px;"/></g><g id="Group-13" serif:id="Group 1"><path d="M134.619,142.929l-15.635,9.026" style="fill:none;stroke:#6fc9ca;stroke-width:9.75px;"/></g><g id="Group-14" serif:id="Group 1"><path d="M134.619,172.929l-15.635,9.026" style="fill:none;stroke:#6fc9ca;stroke-width:9.75px;"/></g><g id="Group-15" serif:id="Group 1"><path d="M88.984,76.955l15.635,-9.026l0,-18.054l0,18.054l15.634,9.026" style="fill:none;stroke:#6fc9ca;stroke-width:9.75px;stroke-linejoin:bevel;"/></g><g id="Group-16" serif:id="Group 1"><path d="M88.984,106.955l15.635,-9.026l0,-18.054l0,18.054l15.634,9.026" style="fill:none;stroke:#6fc9ca;stroke-width:9.75px;stroke-linejoin:bevel;"/></g><g id="Group-17" serif:id="Group 1"><path d="M104.619,109.875l0,18.054l15.634,9.026l-15.634,-9.026l-15.635,9.026" style="fill:none;stroke:#6fc9ca;stroke-width:9.75px;stroke-linejoin:bevel;"/></g><g id="Group-18" serif:id="Group 1"><path d="M104.619,139.875l0,18.054l15.634,9.026l-15.634,-9.026l-15.635,9.026" style="fill:none;stroke:#6fc9ca;stroke-width:9.75px;stroke-linejoin:bevel;"/></g><g id="Group-19" serif:id="Group 1"><path d="M58.984,91.955l15.635,-9.026l0,-18.054l0,18.054l15.634,9.026" style="fill:none;stroke:#6fc9ca;stroke-width:9.75px;stroke-linejoin:bevel;"/></g><g id="Group-110" serif:id="Group 1"><path d="M74.619,94.875l0,18.054l15.634,9.026l-15.634,-9.026l-15.635,9.026" style="fill:none;stroke:#6fc9ca;stroke-width:9.75px;stroke-linejoin:bevel;"/></g><g id="Group-111" serif:id="Group 1"><path d="M74.619,124.875l0,18.054l15.634,9.026l-15.634,-9.026l-15.635,9.026" style="fill:none;stroke:#6fc9ca;stroke-width:9.75px;stroke-linejoin:bevel;"/></g><g id="Group-112" serif:id="Group 1"><path d="M74.619,154.875l0,18.054l15.634,9.026l-15.634,-9.026l-15.635,9.026" style="fill:none;stroke:#6fc9ca;stroke-width:9.75px;stroke-linejoin:bevel;"/></g><g id="Group-113" serif:id="Group 1"><path d="M44.619,49.875l0,18.054l-15.635,9.026l15.635,-9.026l15.634,9.026" style="fill:none;stroke:#6fc9ca;stroke-width:9.75px;stroke-linejoin:bevel;"/></g><g id="Group-114" serif:id="Group 1"><path d="M28.984,106.955l15.635,-9.026l0,-18.054l0,18.054l15.634,9.026" style="fill:none;stroke:#6fc9ca;stroke-width:9.75px;stroke-linejoin:bevel;"/></g><g id="Group-115" serif:id="Group 1"><path d="M44.619,109.875l0,18.054l15.634,9.026l-15.634,-9.026l-15.635,9.026" style="fill:none;stroke:#6fc9ca;stroke-width:9.75px;stroke-linejoin:bevel;"/></g><g id="Group-116" serif:id="Group 1"><path d="M44.619,139.875l0,18.054l15.634,9.026l-15.634,-9.026l-15.635,9.026" style="fill:none;stroke:#6fc9ca;stroke-width:9.75px;stroke-linejoin:bevel;"/></g><g id="Group-117" serif:id="Group 1"><path d="M-1.016,91.955l15.635,-9.026l0,-18.054l0,18.054l15.634,9.026" style="fill:none;stroke:#6fc9ca;stroke-width:9.75px;stroke-linejoin:bevel;"/></g><g id="Group-118" serif:id="Group 1"><path d="M14.619,94.875l0,18.054l15.634,9.026l-15.634,-9.026l-15.635,9.026" style="fill:none;stroke:#6fc9ca;stroke-width:9.75px;stroke-linejoin:bevel;"/></g><g id="Group-119" serif:id="Group 1"><path d="M14.619,124.875l0,18.054l15.634,9.026l-15.634,-9.026l-15.635,9.026" style="fill:none;stroke:#6fc9ca;stroke-width:9.75px;stroke-linejoin:bevel;"/></g><g id="Group-120" serif:id="Group 1"><path d="M14.619,154.875l0,18.054l15.634,9.026l-15.634,-9.026l-15.635,9.026" style="fill:none;stroke:#6fc9ca;stroke-width:9.75px;stroke-linejoin:bevel;"/></g><g id="Group-121" serif:id="Group 1"><path d="M-15.381,67.929l15.634,9.026" style="fill:none;stroke:#6fc9ca;stroke-width:9.75px;"/></g><g id="Group-122" serif:id="Group 1"><path d="M-15.381,97.929l15.634,9.026" style="fill:none;stroke:#6fc9ca;stroke-width:9.75px;"/></g><g id="Group-123" serif:id="Group 1"><path d="M-15.381,127.929l15.634,9.026" style="fill:none;stroke:#6fc9ca;stroke-width:9.75px;"/></g><g id="Group-124" serif:id="Group 1"><path d="M-15.381,157.929l15.634,9.026" style="fill:none;stroke:#6fc9ca;stroke-width:9.75px;"/></g></g><g id="Layer1"><g id="Group-125" serif:id="Group 1"><path d="M44.619,177.375l0,18.054l15.634,9.026l-15.634,-9.026l-15.635,9.026" style="fill:none;stroke:#6fc9ca;stroke-width:9.75px;stroke-linejoin:bevel;"/></g><g id="Group-126" serif:id="Group 1"><path d="M104.619,177.375l0,18.054l15.634,9.026l-15.634,-9.026l-15.635,9.026" style="fill:none;stroke:#6fc9ca;stroke-width:9.75px;stroke-linejoin:bevel;"/></g><g id="Group-127" serif:id="Group 1"><path d="M-15.381,195.429l15.634,9.026" style="fill:none;stroke:#6fc9ca;stroke-width:9.75px;"/></g><g id="Group-128" serif:id="Group 1"><path d="M74.619,27.375l0,18.054l-15.635,9.026l15.635,-9.026l15.634,9.026" style="fill:none;stroke:#6fc9ca;stroke-width:9.75px;stroke-linejoin:bevel;"/></g><g id="Group-129" serif:id="Group 1"><path d="M134.619,45.429l-15.635,9.026" style="fill:none;stroke:#6fc9ca;stroke-width:9.75px;"/></g><g id="Group-130" serif:id="Group 1"><path d="M-1.016,54.455l15.635,-9.026l0,-18.054l0,18.054l15.634,9.026" style="fill:none;stroke:#6fc9ca;stroke-width:9.75px;stroke-linejoin:bevel;"/></g><g id="Group-131" serif:id="Group 1"><path d="M14.619,199.875l0,18.054l15.634,9.026l-15.634,-9.026l-15.635,9.026" style="fill:none;stroke:#6fc9ca;stroke-width:9.75px;stroke-linejoin:bevel;"/></g><g id="Group-132" serif:id="Group 1"><path d="M134.619,217.929l-15.635,9.026" style="fill:none;stroke:#6fc9ca;stroke-width:9.75px;"/></g><g id="Group-133" serif:id="Group 1"><path d="M-15.381,22.929l15.634,9.026" style="fill:none;stroke:#6fc9ca;stroke-width:9.75px;"/></g><g id="Group-134" serif:id="Group 1"><path d="M88.984,31.955l15.635,-9.026l0,-18.054l0,18.054l15.634,9.026" style="fill:none;stroke:#6fc9ca;stroke-width:9.75px;stroke-linejoin:bevel;"/></g></g></svg>