<?xml version="1.0" encoding="UTF-8" standalone="no"?><!DOCTYPE svg PUBLIC "-//W3C//DTD SVG 1.1//EN" "http://www.w3.org/Graphics/SVG/1.1/DTD/svg11.dtd"><svg width="100%" height="100%" viewBox="0 0 800 300" version="1.1" xmlns="http://www.w3.org/2000/svg" xmlns:xlink="http://www.w3.org/1999/xlink" xml:space="preserve" xmlns:serif="http://www.serif.com/" style="fill-rule:evenodd;clip-rule:evenodd;stroke-linecap:round;stroke-linejoin:round;stroke-miterlimit:1.5;"><path d="M0,247.308l728.614,0" style="fill:none;stroke:#378095;stroke-width:6.5px;"/><path d="M84.443,206.393c-2.782,5.484 22.679,-87.136 140.844,-93.984" style="fill:none;stroke:#378095;stroke-width:6.5px;stroke-dasharray:6.5,13,6.5,13;"/><path d="M450.34,206.185c1.295,4.824 -7.882,-30.771 -43.843,-59.574c-21.247,-17.018 -51.843,-31.664 -95.154,-34.202" style="fill:none;stroke:#378095;stroke-width:6.5px;stroke-dasharray:6.5,13,6.5,13;"/><circle cx="450.456" cy="247.308" r="28.06" style="fill:#71daf8;stroke:#378095;stroke-width:6.5px;"/><circle cx="84.244" cy="247.308" r="28.06" style="fill:#71daf8;stroke:#378095;stroke-width:6.5px;"/><circle cx="268.309" cy="112.409" r="28.06" style="fill:#79f871;stroke:#378095;stroke-width:6.5px;"/><g transform="matrix(0.862525,0,0,0.89908,54.9654,9.80871)"><text x="491.352px" y="45.648px" style="font-family:'Courier-Bold', 'Courier';font-size:24px;fill:#3d3d3d;">M content/node.yml</text><text x="491.352px" y="75.648px" style="font-family:'Courier-Bold', 'Courier';font-size:24px;fill:#3d3d3d;">A content/paragraph.yml</text><text x="491.352px" y="105.648px" style="font-family:'Courier-Bold', 'Courier';font-size:24px;fill:#3d3d3d;">A ﬁles/cats.gif</text><text x="491.352px" y="135.648px" style="font-family:'Courier-Bold', 'Courier';font-size:24px;fill:#3d3d3d;">M theme/css/main.css</text></g><path d="M745.951,247.308l-16.274,9.977l0,-19.953l16.274,9.976Z" style="fill:#378095;stroke:#378095;stroke-width:10px;"/><path d="M433.292,57.801c0,0 -74.352,-25.209 -124.652,26.548" style="fill:none;stroke:#378095;stroke-width:4.5px;"/><path d="M446.032,61.375l-12.74,2.172l4.215,-11.884l8.525,9.712Z" style="fill:#378095;stroke:#378095;stroke-width:4.5px;"/></svg>