<?xml version="1.0" encoding="UTF-8" standalone="no"?><!DOCTYPE svg PUBLIC "-//W3C//DTD SVG 1.1//EN" "http://www.w3.org/Graphics/SVG/1.1/DTD/svg11.dtd"><svg width="100%" height="100%" viewBox="0 0 800 300" version="1.1" xmlns="http://www.w3.org/2000/svg" xmlns:xlink="http://www.w3.org/1999/xlink" xml:space="preserve" xmlns:serif="http://www.serif.com/" style="fill-rule:evenodd;clip-rule:evenodd;stroke-linecap:round;stroke-linejoin:round;stroke-miterlimit:1.5;"><g id="files"><g><path d="M26.9,64.956l0,66.965l56.594,0l0,-81.931l-41.109,0c0,0 -15.485,2.05 -15.485,14.966Z" style="fill:#853322;"/><text x="43.172px" y="87.487px" style="font-family:'ArialMT', 'Arial', sans-serif;font-size:16.479px;fill:#fff;">.gif</text></g><g><path d="M55.197,113.554l0,66.964l56.595,0l0,-81.931l-41.11,0c0,0 -15.485,2.051 -15.485,14.967Z" style="fill:#a73922;"/><text x="68.222px" y="136.085px" style="font-family:'ArialMT', 'Arial', sans-serif;font-size:16.479px;fill:#fff;">.yml</text></g><g><path d="M83.494,162.151l0,66.965l56.595,0l0,-81.931l-41.11,0c0,0 -15.485,2.05 -15.485,14.966Z" style="fill:#d24326;"/><text x="94.206px" y="184.682px" style="font-family:'ArialMT', 'Arial', sans-serif;font-size:16.479px;fill:#fff;">.json</text></g></g><g id="droop"><circle cx="400" cy="128.48" r="83.001" style="fill:#44a1e7;"/><path d="M459.102,70.28c-17.099,-16.92 7.927,-38.202 7.927,-38.202c0,0 -37.51,5.989 -78.644,14.216" style="fill:#44a1e7;"/><circle cx="460.336" cy="114.156" r="6.692" style="fill:#015fa8;"/><circle cx="389.23" cy="114.156" r="6.692" style="fill:#015fa8;"/><path d="M400,128.48l53.644,0c0,0 -26.634,21.963 -53.644,0Z" style="fill:#015fa8;"/></g><g id="site"><path d="M775.104,46.399c0,-2.205 -1.79,-3.995 -3.995,-3.995l-123.416,0c-2.205,0 -3.995,1.79 -3.995,3.995l0,171.413c0,2.205 1.79,3.995 3.995,3.995l123.416,0c2.205,0 3.995,-1.79 3.995,-3.995l0,-171.413Z" style="fill:#fff;stroke:#747474;stroke-width:3px;"/><rect x="651.919" y="49.737" width="26.21" height="13.267" style="fill:#d0d0d0;"/><rect x="651.919" y="67.411" width="115.451" height="27.828" style="fill:#d0d0d0;"/><rect x="735.251" y="102.165" width="32.119" height="33.455" style="fill:#d0d0d0;"/><rect x="724.985" y="142.488" width="42.385" height="39.433" style="fill:#d0d0d0;"/><rect x="689.133" y="102.165" width="41.877" height="33.455" style="fill:#d0d0d0;"/><rect x="651.919" y="102.165" width="32.119" height="33.455" style="fill:#d0d0d0;"/><rect x="651.919" y="143.181" width="64.682" height="5.979" style="fill:#d0d0d0;"/><rect x="651.919" y="154.028" width="58.152" height="5.979" style="fill:#d0d0d0;"/><rect x="651.919" y="175.943" width="52.134" height="5.979" style="fill:#d0d0d0;"/><rect x="651.919" y="165.019" width="64.682" height="5.979" style="fill:#d0d0d0;"/><rect x="651.919" y="190.322" width="115.451" height="24.504" style="fill:#d0d0d0;"/></g><g id="arrowz"><path d="M140.089,90.962c0,0 59.611,-113.484 170.123,-25.363" style="fill:none;stroke:#747474;stroke-width:5px;"/><path d="M313.951,70.995l-11.385,-4.746l8.394,-7.22l2.991,11.966Z" style="fill:#747474;stroke:#747474;stroke-width:2.5px;"/><path d="M624.81,132.106l-11.022,5.535l0,-11.071l11.022,5.536Z" style="fill:#747474;stroke:#747474;stroke-width:2.5px;"/><path d="M333.259,210.259c0,0 -59.61,113.484 -170.123,25.363" style="fill:none;stroke:#747474;stroke-width:5px;"/><path d="M159.397,230.226l11.385,4.746l-8.394,7.22l-2.991,-11.966Z" style="fill:#747474;stroke:#747474;stroke-width:2.5px;"/><path d="M498.12,132.106l115.668,0" style="fill:none;stroke:#747474;stroke-width:5px;"/><path d="M592.43,92.429l0.67,5.463l5.166,1.02l-4.752,2.356l0.67,5.463l-3.607,-4.007l-4.753,2.355l2.523,-4.832l-3.607,-4.007l5.167,1.021l2.523,-4.832Z" style="fill:#747474;stroke:#747474;stroke-width:2.5px;"/><path d="M554.643,99.58l2.682,4.737l5.13,-1.209l-3.472,4.137l2.682,4.737l-4.828,-2.181l-3.471,4.136l0.488,-5.484l-4.828,-2.181l5.129,-1.208l0.488,-5.484Z" style="fill:#747474;stroke:#747474;stroke-width:2.5px;"/><path d="M526.142,92.2l1.344,5.325l5.25,0.306l-4.419,2.985l1.344,5.325l-4.075,-3.48l-4.418,2.984l1.9,-5.135l-4.075,-3.48l5.249,0.306l1.9,-5.136Z" style="fill:#747474;stroke:#747474;stroke-width:2.5px;"/></g><text x="684.261px" y="87.293px" style="font-family:'ArialMT', 'Arial', sans-serif;font-size:20px;">.html</text></svg>