<?xml version="1.0" encoding="UTF-8" standalone="no"?><!DOCTYPE svg PUBLIC "-//W3C//DTD SVG 1.1//EN" "http://www.w3.org/Graphics/SVG/1.1/DTD/svg11.dtd"><svg width="100%" height="100%" viewBox="0 0 800 300" version="1.1" xmlns="http://www.w3.org/2000/svg" xmlns:xlink="http://www.w3.org/1999/xlink" xml:space="preserve" xmlns:serif="http://www.serif.com/" style="fill-rule:evenodd;clip-rule:evenodd;stroke-linecap:round;stroke-linejoin:round;stroke-miterlimit:1.5;"><path d="M0,247.308l728.614,0" style="fill:none;stroke:#378095;stroke-width:10px;"/><path d="M103.338,206.393c3.032,2.753 19.637,-87.136 121.949,-93.984" style="fill:none;stroke:#378095;stroke-width:10px;stroke-dasharray:10,20,10,20;"/><path d="M433.292,206.393c-3.032,2.753 -19.636,-87.136 -121.949,-93.984" style="fill:none;stroke:#378095;stroke-width:10px;stroke-dasharray:10,20,10,20;"/><circle cx="450.456" cy="247.308" r="28.06" style="fill:#fff;stroke:#378095;stroke-width:10px;"/><circle cx="84.244" cy="247.308" r="28.06" style="fill:#fff;stroke:#378095;stroke-width:10px;"/><circle cx="269.852" cy="112.409" r="28.06" style="fill:#fff;stroke:#378095;stroke-width:10px;"/><g transform="matrix(1,0,0,1,-29.707,-6.96007)"><text x="491.352px" y="45.648px" style="font-family:'IBMPlexMono-Medium', 'IBM Plex Mono', monospace;font-weight:500;font-size:24px;fill:#3d3d3d;">M content/node.yml</text><text x="491.352px" y="75.648px" style="font-family:'IBMPlexMono-Medium', 'IBM Plex Mono', monospace;font-weight:500;font-size:24px;fill:#3d3d3d;">A content/paragraph.yml</text><text x="491.352px" y="105.648px" style="font-family:'IBMPlexMono-Medium', 'IBM Plex Mono', monospace;font-weight:500;font-size:24px;fill:#3d3d3d;">A ﬁles/cats.gif</text><text x="491.352px" y="135.648px" style="font-family:'IBMPlexMono-Medium', 'IBM Plex Mono', monospace;font-weight:500;font-size:24px;fill:#3d3d3d;">M theme/css/main.css</text></g><path d="M772.79,247.308l-43.91,12.232l0,-24.463l43.91,12.231Z" style="fill:#378095;stroke:#378095;stroke-width:10px;"/><path d="M433.292,57.801c0,0 -74.352,-25.209 -124.652,26.548" style="fill:none;stroke:#378095;stroke-width:4.5px;"/><path d="M446.032,61.375l-12.74,2.172l4.215,-11.884l8.525,9.712Z" style="fill:#378095;stroke:#378095;stroke-width:4.5px;"/></svg>