<?xml version="1.0" encoding="UTF-8" standalone="no"?><!DOCTYPE svg PUBLIC "-//W3C//DTD SVG 1.1//EN" "http://www.w3.org/Graphics/SVG/1.1/DTD/svg11.dtd"><svg width="100%" height="100%" viewBox="0 0 800 300" version="1.1" xmlns="http://www.w3.org/2000/svg" xmlns:xlink="http://www.w3.org/1999/xlink" xml:space="preserve" xmlns:serif="http://www.serif.com/" style="fill-rule:evenodd;clip-rule:evenodd;stroke-linecap:round;stroke-linejoin:round;stroke-miterlimit:1.5;"><g id="coworkers"><path id="coworkers-commit-1" d="M140.988,167.728c-0.064,-5.428 -3.111,-7.315 -7.951,-7.072l-23.139,0l0,37.917l31.09,0l0,-30.845Z" style="fill:#ff5130;stroke:#000;stroke-width:5px;"/><path id="coworkers-commit-2" d="M313.988,167.728c-0.064,-5.428 -3.111,-7.315 -7.951,-7.072l-23.139,0l0,37.917l31.09,0l0,-30.845Z" style="fill:#29afb0;stroke:#000;stroke-width:5px;"/><path id="coworkers-commit-3" d="M492.988,167.728c-0.064,-5.428 -3.111,-7.315 -7.951,-7.072l-23.139,0l0,37.917l31.09,0l0,-30.845Z" style="fill:#43c366;stroke:#000;stroke-width:5px;"/><g><g id="Layer1"><path d="M154.477,142.53c0,0 19.565,10.387 22.871,19.948c3.868,11.188 2.688,40.871 0.337,47.176c-3.044,5.001 -29.85,9.641 -29.85,9.641" style="fill:#fff;stroke:#000;stroke-width:5px;"/><path d="M163.594,159.535c0,-11.077 -8.993,-20.07 -20.07,-20.07l-40.139,0c-11.077,0 -20.07,8.993 -20.07,20.07l0,40.139c0,11.077 8.993,20.069 20.07,20.069l40.139,0c11.077,0 20.07,-8.992 20.07,-20.069l0,-40.139Z" style="fill:#fff;stroke:#000;stroke-width:5px;"/><path d="M152.125,165.269c0,-7.912 -6.423,-14.335 -14.335,-14.335l-28.671,0c-7.912,0 -14.335,6.423 -14.335,14.335l0,28.67c0,7.912 6.423,14.336 14.335,14.336l28.671,0c7.912,0 14.335,-6.424 14.335,-14.336l0,-28.67Z" style="fill:#ff5130;stroke:#000;stroke-width:5px;"/><path d="M82.513,229.074l80.278,0l-8,20.494l-82.673,0l10.395,-20.494Z" style="fill:#fff;stroke:#000;stroke-width:5px;"/></g><g id="Layer2"><circle id="coworkers-head-1" cx="69.518" cy="183.024" r="33.522" style="fill:#fff;stroke:#000;stroke-width:5px;"/><path d="M69.62,216.546c25.051,0 45.389,29.002 45.389,64.725c-11.164,10.124 -95.674,7.188 -90.778,0c0,-35.723 20.338,-64.725 45.389,-64.725Z" style="fill:#fff;stroke:#000;stroke-width:5px;"/></g></g><g><g id="Layer11" serif:id="Layer1"><path d="M328.634,142.53c0,0 19.565,10.387 22.871,19.948c3.867,11.188 2.687,40.871 0.336,47.176c-3.043,5.001 -29.849,9.641 -29.849,9.641" style="fill:#fff;stroke:#000;stroke-width:5px;"/><path d="M337.75,159.535c0,-11.077 -8.992,-20.07 -20.069,-20.07l-40.14,0c-11.076,0 -20.069,8.993 -20.069,20.07l0,40.139c0,11.077 8.993,20.069 20.069,20.069l40.14,0c11.077,0 20.069,-8.992 20.069,-20.069l0,-40.139Z" style="fill:#fff;stroke:#000;stroke-width:5px;"/><path d="M326.282,165.269c0,-7.912 -6.424,-14.335 -14.336,-14.335l-28.67,0c-7.912,0 -14.335,6.423 -14.335,14.335l0,28.67c0,7.912 6.423,14.336 14.335,14.336l28.67,0c7.912,0 14.336,-6.424 14.336,-14.336l0,-28.67Z" style="fill:#29afb0;stroke:#000;stroke-width:5px;"/><path d="M256.669,229.074l80.279,0l-8,20.494l-82.674,0l10.395,-20.494Z" style="fill:#fff;stroke:#000;stroke-width:5px;"/></g><g id="Layer21" serif:id="Layer2"><circle id="coworkers-head-2" cx="243.675" cy="183.024" r="33.522" style="fill:#fff;stroke:#000;stroke-width:5px;"/><path d="M243.777,216.546c25.051,0 45.389,29.002 45.389,64.725c-11.164,10.124 -95.675,7.188 -90.778,0c0,-35.723 20.338,-64.725 45.389,-64.725Z" style="fill:#fff;stroke:#000;stroke-width:5px;"/></g></g><g><g id="Layer12" serif:id="Layer1"><path d="M506.251,142.53c0,0 19.565,10.387 22.871,19.948c3.868,11.188 2.688,40.871 0.336,47.176c-3.043,5.001 -29.849,9.641 -29.849,9.641" style="fill:#fff;stroke:#000;stroke-width:5px;"/><path d="M515.368,159.535c0,-11.077 -8.993,-20.07 -20.07,-20.07l-40.139,0c-11.077,0 -20.07,8.993 -20.07,20.07l0,40.139c0,11.077 8.993,20.069 20.07,20.069l40.139,0c11.077,0 20.07,-8.992 20.07,-20.069l0,-40.139Z" style="fill:#fff;stroke:#000;stroke-width:5px;"/><path d="M503.899,165.269c0,-7.912 -6.424,-14.335 -14.335,-14.335l-28.671,0c-7.912,0 -14.335,6.423 -14.335,14.335l0,28.67c0,7.912 6.423,14.336 14.335,14.336l28.671,0c7.911,0 14.335,-6.424 14.335,-14.336l0,-28.67Z" style="fill:#43c366;stroke:#000;stroke-width:5px;"/><path d="M434.287,229.074l80.278,0l-8,20.494l-82.674,0l10.396,-20.494Z" style="fill:#fff;stroke:#000;stroke-width:5px;"/></g><g id="Layer22" serif:id="Layer2"><circle id="coworkers-head-3" cx="421.292" cy="183.024" r="33.522" style="fill:#fff;stroke:#000;stroke-width:5px;"/><path d="M421.394,216.546c25.051,0 45.389,29.002 45.389,64.725c-11.164,10.124 -95.675,7.188 -90.778,0c0,-35.723 20.338,-64.725 45.389,-64.725Z" style="fill:#fff;stroke:#000;stroke-width:5px;"/></g></g><g><path d="M765.944,40.055c0,-5.009 -4.067,-9.076 -9.076,-9.076l-163.379,0c-5.009,0 -9.076,4.067 -9.076,9.076l0,198.82c0,5.009 4.067,9.076 9.076,9.076l163.379,0c5.009,0 9.076,-4.067 9.076,-9.076l0,-198.82Z" style="fill:#fff;stroke:#000;stroke-width:5px;"/><path id="coworkers-block-1" d="M753.858,49.938c0,-1.341 -1.089,-2.431 -2.431,-2.431l-151.415,0c-1.342,0 -2.431,1.09 -2.431,2.431l0,42.712c0,1.342 1.089,2.431 2.431,2.431l151.415,0c1.342,0 2.431,-1.089 2.431,-2.431l0,-42.712Z" style="fill:#fff;stroke:#000;stroke-width:5px;"/><path id="coworkers-block-2" d="M753.858,120.056c0,-1.312 -1.066,-2.378 -2.379,-2.378l-151.519,0c-1.313,0 -2.379,1.066 -2.379,2.378l0,42.817c0,1.313 1.066,2.379 2.379,2.379l151.519,0c1.313,0 2.379,-1.066 2.379,-2.379l0,-42.817Z" style="fill:#fff;stroke:#000;stroke-width:5px;"/><path id="coworkers-block-3" d="M753.858,188.229c0,-1.313 -1.066,-2.379 -2.379,-2.379l-151.519,0c-1.313,0 -2.379,1.066 -2.379,2.379l0,42.816c0,1.313 1.066,2.379 2.379,2.379l151.519,0c1.313,0 2.379,-1.066 2.379,-2.379l0,-42.816Z" style="fill:#fff;stroke:#000;stroke-width:5px;"/></g><g><g id="coworkers-git"><path d="M179.859,23.165l43.604,43.604l-23.787,-23.787l0,38.673" style="fill:none;stroke:#000;stroke-width:5px;"/><circle cx="223.463" cy="66.769" r="6.541" style="stroke:#000;stroke-width:5px;"/><circle cx="199.487" cy="80.556" r="6.541" style="stroke:#000;stroke-width:5px;"/><circle cx="200.487" cy="42.982" r="6.541" style="stroke:#000;stroke-width:5px;"/></g><g id="coworkers-ci"><path d="M422.345,68.804c-5.05,11.408 -16.473,19.377 -29.743,19.377c-13.885,0 -25.748,-8.724 -30.403,-20.985" style="fill:none;stroke:#000;stroke-width:5px;"/><path d="M361.999,44.69c4.508,-12.544 16.515,-21.525 30.603,-21.525c13.211,0 24.591,7.898 29.675,19.225" style="fill:none;stroke:#000;stroke-width:5px;"/><path d="M359.682,56.386l5.907,7.985l-7.18,1.865l1.273,-9.85Z" style="stroke:#000;stroke-width:5px;"/><path d="M424.253,53.847l-5.537,-8.245l7.257,-1.537l-1.72,9.782Z" style="stroke:#000;stroke-width:5px;"/></g><circle cx="392.272" cy="57.706" r="16.347" style="fill:#44a1e7;stroke:#000;stroke-width:5px;"/><path d="M407.076,50.862c-3.836,-3.743 -0.098,-12.707 -0.098,-12.707c0,0 -12.867,2.081 -20.929,4.379" style="fill:#44a1e7;stroke:#000;stroke-width:5px;"/></g></g><path d="M240.217,35.197c0,0 54.726,-27.071 99.246,0" style="fill:none;stroke:#000;stroke-width:5px;stroke-linejoin:miter;stroke-miterlimit:1;stroke-dasharray:0,15,5,0;stroke-dashoffset:5;"/><path d="M440.084,35.197c0,0 66.004,-27.071 119.699,0" style="fill:none;stroke:#000;stroke-width:5px;stroke-linejoin:miter;stroke-miterlimit:1;stroke-dasharray:0,15,5,0;stroke-dashoffset:5;"/></svg>