<?xml version="1.0" encoding="UTF-8" standalone="no"?><!DOCTYPE svg PUBLIC "-//W3C//DTD SVG 1.1//EN" "http://www.w3.org/Graphics/SVG/1.1/DTD/svg11.dtd"><svg width="100%" height="100%" viewBox="0 0 150 150" version="1.1" xmlns="http://www.w3.org/2000/svg" xmlns:xlink="http://www.w3.org/1999/xlink" xml:space="preserve" xmlns:serif="http://www.serif.com/" style="fill-rule:evenodd;clip-rule:evenodd;stroke-linecap:round;stroke-linejoin:round;stroke-miterlimit:1.5;"><g id="fill"><path d="M53.531,142.54c-9.267,1.969 14.341,-5.449 14.438,-9.903l0.036,-100.707c-1.869,-2.671 -52.62,-21.749 -66.88,9.71c-4.192,9.246 12.198,-34.505 12.198,-34.505c0,0 -2.938,9.73 7.682,9.73c10.621,0 54.837,0 54.837,0l-0.01,0c0,0 44.216,0 54.837,0c10.621,0 19.331,-8.77 19.331,-8.77c-3.936,3.164 -13.373,41.724 -11.911,33.926c2.442,-13.02 -6.995,-17.14 -18.374,-17.438c-16.812,-0.439 -34.464,5.055 -36.045,7.347l0.035,100.707c0.098,4.454 23.842,11.873 14.576,9.894c-9.992,-2.135 0,0 0,0" style="fill:url(#_Linear1);"/></g><g><path d="M14.485,23.391c45.76,-4.667 61.027,3.01 61.027,3.01l0,108.496c-0.107,1.833 -10.195,3.754 -21.91,6.239c-9.101,1.93 14.083,-5.341 14.178,-9.708l0.035,-98.73c-1.835,-2.619 -51.674,-21.322 -65.678,9.519c-4.116,9.065 11.979,-33.827 11.979,-33.827c0,0 -2.886,9.539 7.544,9.539c10.43,0 53.852,0 53.852,0" style="fill:none;stroke:#6c6c6c;stroke-width:0.8px;"/><path d="M136.529,23.391c-45.76,-4.667 -61.027,3.01 -61.027,3.01l0,108.496c1.586,2.204 12.233,4.137 22.046,6.23c9.099,1.941 -14.219,-5.332 -14.314,-9.699l-0.035,-98.73c1.552,-2.247 18.888,-7.632 35.398,-7.202c11.174,0.291 20.441,4.331 18.043,17.095c-1.436,7.645 7.831,-30.158 11.697,-33.259c0,0 -8.554,8.597 -18.984,8.597c-10.429,0 -53.851,0 -53.851,0" style="fill:none;stroke:#6c6c6c;stroke-width:0.8px;"/><path d="M1.837,42.591c7.433,-16.596 12.012,-18.827 12.012,-18.827c1.552,-1.469 -2.907,-5.573 -0.154,-12.938" style="fill:none;stroke:#6c6c6c;stroke-width:0.8px;"/><path d="M51.429,141.738l48.146,0" style="fill:none;stroke:#6c6c6c;stroke-width:0.8px;"/><path d="M147.59,10.079c-4.971,6.007 -4.835,9.957 -10.658,13.017c3.067,6.499 1.691,12.997 -0.22,19.495" style="fill:none;stroke:#6c6c6c;stroke-width:0.8px;"/></g><defs><linearGradient id="_Linear1" x1="0" y1="0" x2="1" y2="0" gradientUnits="userSpaceOnUse" gradientTransform="matrix(149.561,0,0,135.731,0.4388,75)"><stop offset="0" style="stop-color:#d661b7;stop-opacity:1"/><stop offset="1" style="stop-color:#69d1ff;stop-opacity:1"/></linearGradient></defs></svg>