<?xml version="1.0" encoding="UTF-8" standalone="no"?><!DOCTYPE svg PUBLIC "-//W3C//DTD SVG 1.1//EN" "http://www.w3.org/Graphics/SVG/1.1/DTD/svg11.dtd"><svg width="100%" height="100%" viewBox="0 0 313 254" version="1.1" xmlns="http://www.w3.org/2000/svg" xmlns:xlink="http://www.w3.org/1999/xlink" xml:space="preserve" xmlns:serif="http://www.serif.com/" style="fill-rule:evenodd;clip-rule:evenodd;stroke-linecap:round;stroke-linejoin:round;stroke-miterlimit:1.5;"><g><g id="coworkers-git"><path d="M2.5,130.761l81.855,81.855l-44.654,-44.654l0,72.599" style="fill:none;stroke:#000;stroke-width:5px;"/><circle cx="84.355" cy="212.616" r="12.279" style="fill:#fff;stroke:#000;stroke-width:5px;"/><circle cx="40.347" cy="238.498" r="12.279" style="fill:#fff;stroke:#000;stroke-width:5px;"/><circle cx="40.224" cy="167.962" r="12.279" style="fill:#fff;stroke:#000;stroke-width:5px;"/></g><g><g id="coworkers-ci"><path d="M303.639,88.174c-9.478,21.417 -30.923,36.376 -55.834,36.376c-26.065,0 -48.335,-16.377 -57.073,-39.393" style="fill:none;stroke:#000;stroke-width:5px;"/><path d="M190.357,42.908c8.462,-23.548 31.002,-40.408 57.448,-40.408c24.8,0 46.165,14.826 55.707,36.09" style="fill:none;stroke:#000;stroke-width:5px;"/><path d="M186.008,64.864l11.087,14.99l-13.477,3.501l2.39,-18.491Z" style="stroke:#000;stroke-width:5px;"/><path d="M307.221,60.097l-10.393,-15.478l13.623,-2.884l-3.23,18.362Z" style="stroke:#000;stroke-width:5px;"/></g><circle cx="247.186" cy="67.341" r="30.687" style="fill:#44a1e7;"/><path d="M274.977,54.493c-7.201,-7.026 -0.184,-23.853 -0.184,-23.853c0,0 -24.154,3.907 -39.288,8.221" style="fill:#44a1e7;"/></g><path d="M114.968,213.534c-6.451,16.864 128.419,28.501 132.066,-64.283" style="fill:none;stroke:#000;stroke-width:5px;stroke-linejoin:miter;stroke-miterlimit:1;stroke-dasharray:0,15,5,0;stroke-dashoffset:5;"/></g></svg>