<?xml version="1.0" encoding="UTF-8" standalone="no"?><!DOCTYPE svg PUBLIC "-//W3C//DTD SVG 1.1//EN" "http://www.w3.org/Graphics/SVG/1.1/DTD/svg11.dtd"><svg width="100%" height="100%" viewBox="0 0 112 82" version="1.1" xmlns="http://www.w3.org/2000/svg" xmlns:xlink="http://www.w3.org/1999/xlink" xml:space="preserve" xmlns:serif="http://www.serif.com/" style="fill-rule:evenodd;clip-rule:evenodd;stroke-linecap:round;stroke-linejoin:round;stroke-miterlimit:1.5;"><g id="book"><path d="M6.537,5.681l-4.037,3.805l0,60.569l5.62,-11.148l-5.62,11.148c13.776,-4.785 33.034,-0.92 53.473,8.473" style="fill:#fff;stroke:#000;stroke-width:5px;"/><path d="M57.121,78.528c-15.846,-18.36 -32.799,-24.658 -51.454,-16.741l0,-58.451c30.021,-13.077 56.167,16.667 51.454,14.376l0,60.816Z" style="fill:#fff;"/><path d="M21.643,0l0.324,0.003l0.324,0.006l0.322,0.008l0.322,0.01l0.32,0.013l0.32,0.016l0.319,0.018l0.318,0.021l0.318,0.023l0.316,0.025l0.315,0.028l0.315,0.031l0.314,0.032l0.312,0.035l0.312,0.038l0.311,0.039l0.31,0.042l0.309,0.044l0.307,0.046l0.307,0.048l0.306,0.05l0.305,0.053l0.304,0.054l0.303,0.057l0.301,0.059l0.301,0.06l0.3,0.063l0.298,0.064l0.298,0.067l0.296,0.068l0.296,0.07l0.294,0.072l0.293,0.074l0.292,0.076l0.291,0.077l0.29,0.079l0.288,0.081l0.287,0.083l0.287,0.084l0.285,0.085l0.284,0.088l0.282,0.089l0.282,0.09l0.28,0.092l0.279,0.093l0.277,0.095l0.277,0.096l0.275,0.098l0.274,0.099l0.273,0.101l0.271,0.101l0.27,0.103l0.269,0.105l0.267,0.105l0.266,0.107l0.265,0.108l0.263,0.109l0.262,0.11l0.261,0.112l0.259,0.112l0.258,0.114l0.257,0.114l0.255,0.116l0.254,0.116l0.252,0.118l0.251,0.118l0.249,0.119l0.248,0.121l0.247,0.121l0.245,0.121l0.243,0.123l0.242,0.123l0.241,0.124l0.239,0.125l0.237,0.126l0.236,0.126l0.234,0.127l0.233,0.127l0.232,0.128l0.229,0.128l0.228,0.129l0.227,0.13l0.225,0.13l0.223,0.13l0.222,0.131l0.22,0.131l0.218,0.132l0.217,0.132l0.215,0.132l0.214,0.133l0.212,0.132l0.21,0.133l0.208,0.133l0.207,0.134l0.205,0.133l0.203,0.134l0.202,0.134l0.2,0.133l0.198,0.134l0.196,0.134l0.194,0.134l0.193,0.133l0.191,0.134l0.189,0.134l0.187,0.133l0.186,0.134l0.184,0.133l0.181,0.133l0.18,0.132l0.179,0.133l0.176,0.132l0.174,0.132l0.173,0.131l0.17,0.132l0.169,0.13l0.167,0.131l0.164,0.13l0.163,0.129l0.161,0.129l0.159,0.128l0.157,0.128l0.155,0.128l0.153,0.126l0.151,0.126l0.149,0.126l0.147,0.124l0.145,0.124l0.143,0.124l0.141,0.122l0.139,0.122l0.137,0.121l0.267,0.239l0.259,0.236l0.251,0.232l0.242,0.227l0.234,0.224l0.224,0.219l0.216,0.215l0.208,0.209l0.198,0.205l0.189,0.199l0.181,0.194l0.171,0.187l0.162,0.182l0.152,0.176l0.073,0.086l0.07,0.084l0.069,0.082l0.065,0.081l0.064,0.078l0.06,0.078l0.059,0.075l0.056,0.074l0.054,0.071l0.051,0.07l0.049,0.069l0.046,0.066l0.044,0.064l0.042,0.062l0.039,0.061l0.036,0.058l0.034,0.057l0.032,0.054l0.029,0.052l0.026,0.05l0.024,0.048l0.021,0.046l0.019,0.044l0.017,0.041l0.013,0.04l0.011,0.037l0.009,0.034l0.006,0.033l0.003,0.03l0.001,0.027l-0.002,0.026l-0.002,0.011l-0.003,0.011l-0.003,0.011l-0.004,0.01l-0.005,0.009l-0.005,0.009l-0.006,0.008l-0.007,0.007l-0.007,0.007l-0.008,0.006l-0.009,0.005l-0.009,0.005l-0.01,0.004l-0.011,0.004l-0.011,0.003l-0.012,0.002l-0.026,0.003l-0.029,-0.001l-0.032,-0.002l-0.034,-0.006l-0.037,-0.008l-0.04,-0.012l-0.042,-0.013l-0.046,-0.017l-0.048,-0.02l-0.051,-0.022l-0.054,-0.026l0,60.816l-0.186,-0.215l-0.185,-0.213l-0.186,-0.213l-0.186,-0.211l-0.187,-0.21l-0.186,-0.209l-0.186,-0.208l-0.187,-0.207l-0.186,-0.206l-0.187,-0.204l-0.187,-0.204l-0.186,-0.202l-0.187,-0.202l-0.188,-0.2l-0.187,-0.199l-0.187,-0.198l-0.187,-0.197l-0.188,-0.195l-0.188,-0.195l-0.187,-0.193l-0.188,-0.193l-0.188,-0.191l-0.188,-0.19l-0.188,-0.189l-0.188,-0.188l-0.189,-0.187l-0.188,-0.185l-0.189,-0.185l-0.188,-0.183l-0.189,-0.182l-0.189,-0.182l-0.189,-0.179l-0.189,-0.179l-0.189,-0.178l-0.19,-0.177l-0.189,-0.175l-0.19,-0.174l-0.189,-0.174l-0.19,-0.172l-0.19,-0.171l-0.19,-0.169l-0.19,-0.169l-0.19,-0.168l-0.19,-0.166l-0.191,-0.165l-0.19,-0.164l-0.191,-0.163l-0.191,-0.162l-0.191,-0.161l-0.191,-0.159l-0.191,-0.159l-0.191,-0.157l-0.191,-0.156l-0.192,-0.155l-0.191,-0.154l-0.192,-0.153l-0.192,-0.151l-0.191,-0.151l-0.192,-0.149l-0.193,-0.148l-0.192,-0.147l-0.192,-0.146l-0.193,-0.144l-0.192,-0.144l-0.193,-0.142l-0.193,-0.141l-0.192,-0.14l-0.193,-0.139l-0.194,-0.138l-0.193,-0.136l-0.193,-0.136l-0.194,-0.134l-0.193,-0.133l-0.194,-0.132l-0.194,-0.131l-0.194,-0.129l-0.194,-0.129l-0.194,-0.127l-0.194,-0.126l-0.195,-0.125l-0.194,-0.124l-0.195,-0.122l-0.195,-0.122l-0.195,-0.12l-0.195,-0.119l-0.195,-0.118l-0.195,-0.117l-0.195,-0.115l-0.196,-0.115l-0.196,-0.113l-0.195,-0.112l-0.196,-0.111l-0.196,-0.11l-0.196,-0.108l-0.196,-0.107l-0.197,-0.107l-0.196,-0.105l-0.197,-0.103l-0.197,-0.103l-0.196,-0.102l-0.197,-0.1l-0.197,-0.099l-0.198,-0.098l-0.197,-0.097l-0.197,-0.095l-0.198,-0.095l-0.198,-0.093l-0.198,-0.092l-0.197,-0.09l-0.199,-0.09l-0.198,-0.089l-0.198,-0.087l-0.199,-0.086l-0.198,-0.085l-0.199,-0.083l-0.199,-0.083l-0.199,-0.081l-0.199,-0.08l-0.199,-0.079l-0.199,-0.078l-0.2,-0.076l-0.199,-0.076l-0.2,-0.074l-0.2,-0.073l-0.2,-0.071l-0.2,-0.071l-0.2,-0.069l-0.2,-0.068l-0.201,-0.067l-0.2,-0.066l-0.201,-0.064l-0.201,-0.064l-0.201,-0.062l-0.201,-0.06l-0.201,-0.06l-0.202,-0.059l-0.201,-0.057l-0.202,-0.056l-0.202,-0.055l-0.202,-0.053l-0.202,-0.053l-0.202,-0.051l-0.202,-0.05l-0.203,-0.049l-0.202,-0.047l-0.203,-0.047l-0.203,-0.045l-0.203,-0.044l-0.203,-0.042l-0.203,-0.042l-0.203,-0.04l-0.204,-0.039l-0.203,-0.038l-0.204,-0.036l-0.204,-0.036l-0.204,-0.034l-0.204,-0.033l-0.205,-0.031l-0.204,-0.031l-0.205,-0.029l-0.204,-0.028l-0.205,-0.027l-0.205,-0.025l-0.205,-0.025l-0.205,-0.023l-0.206,-0.022l-0.205,-0.02l-0.206,-0.02l-0.206,-0.018l-0.206,-0.017l-0.206,-0.015l-0.206,-0.015l-0.206,-0.013l-0.207,-0.012l-0.206,-0.011l-0.207,-0.009l-0.207,-0.008l-0.207,-0.007l-0.207,-0.006l-0.208,-0.005l-0.207,-0.003l-0.208,-0.002l-0.207,-0.001l-0.208,0.001l-0.208,0.001l-0.208,0.003l-0.209,0.004l-0.208,0.006l-0.209,0.006l-0.208,0.008l-0.209,0.01l-0.209,0.01l-0.21,0.012l-0.209,0.013l-0.209,0.014l-0.21,0.015l-0.21,0.017l-0.209,0.018l-0.21,0.019l-0.211,0.021l-0.21,0.021l-0.21,0.023l-0.211,0.025l-0.211,0.025l-0.21,0.027l-0.211,0.028l-0.212,0.029l-0.211,0.031l-0.211,0.032l-0.212,0.033l-0.212,0.034l-0.212,0.036l-0.212,0.036l-0.212,0.039l-0.212,0.039l-0.213,0.041l-0.212,0.042l-0.213,0.043l-0.213,0.044l-0.213,0.046l-0.213,0.047l-0.214,0.049l-0.213,0.049l-0.214,0.051l-0.214,0.052l-0.214,0.054l-0.214,0.054l-0.214,0.056l-0.214,0.058l-0.215,0.058l-0.215,0.06l-0.215,0.061l-0.215,0.063l-0.215,0.063l-0.215,0.065l-0.215,0.066l-0.216,0.068l-0.216,0.069l-0.216,0.07l-0.216,0.071l-0.216,0.073l-0.216,0.074l-0.217,0.075l-0.217,0.077l-0.216,0.078l-0.217,0.079l-0.218,0.08l-0.217,0.082l-0.217,0.083l-0.218,0.084l-0.218,0.086l-0.218,0.087l-0.218,0.088l-0.218,0.09l-0.218,0.09l-0.219,0.093l0,-58.451l0.176,-0.076l0.176,-0.075l0.175,-0.074l0.176,-0.074l0.176,-0.072l0.175,-0.071l0.175,-0.071l0.175,-0.069l0.176,-0.068l0.175,-0.068l0.174,-0.066l0.175,-0.066l0.175,-0.064l0.175,-0.064l0.174,-0.063l0.174,-0.062l0.175,-0.061l0.174,-0.06l0.174,-0.059l0.174,-0.058l0.174,-0.057l0.173,-0.056l0.174,-0.056l0.173,-0.054l0.174,-0.054l0.173,-0.053l0.173,-0.051l0.173,-0.051l0.173,-0.05l0.173,-0.05l0.173,-0.048l0.172,-0.047l0.172,-0.047l0.173,-0.046l0.172,-0.044l0.172,-0.044l0.172,-0.043l0.171,-0.043l0.172,-0.041l0.171,-0.04l0.172,-0.04l0.171,-0.039l0.171,-0.038l0.171,-0.037l0.171,-0.036l0.17,-0.036l0.171,-0.035l0.17,-0.033l0.17,-0.033l0.17,-0.033l0.17,-0.031l0.17,-0.031l0.17,-0.029l0.169,-0.029l0.169,-0.029l0.169,-0.027l0.169,-0.027l0.169,-0.025l0.169,-0.025l0.168,-0.025l0.337,-0.046l0.336,-0.043l0.335,-0.04l0.334,-0.037l0.334,-0.034l0.333,-0.031l0.333,-0.027l0.331,-0.026l0.331,-0.022l0.331,-0.019l0.329,-0.016l0.329,-0.014l0.328,-0.011l0.327,-0.008l0.327,-0.005l0.325,-0.003l0.325,0Zm-0.59,5.002l-0.285,0.005l-0.285,0.007l-0.286,0.01l-0.287,0.011l-0.287,0.015l-0.289,0.017l-0.287,0.019l-0.289,0.022l-0.29,0.024l-0.29,0.027l-0.291,0.03l-0.291,0.032l-0.291,0.034l-0.293,0.038l-0.299,0.041l-0.141,0.02l-0.147,0.022l-0.146,0.022l-0.147,0.024l-0.147,0.023l-0.148,0.025l-0.147,0.025l-0.148,0.026l-0.148,0.027l-0.149,0.027l-0.148,0.028l-0.147,0.029l-0.148,0.029l-0.149,0.031l-0.15,0.031l-0.148,0.031l-0.149,0.033l-0.149,0.033l-0.149,0.033l-0.15,0.035l-0.148,0.035l-0.15,0.036l-0.151,0.037l-0.15,0.038l-0.15,0.038l-0.151,0.04l-0.15,0.039l-0.149,0.041l-0.151,0.041l-0.152,0.043l-0.15,0.042l-0.151,0.044l-0.153,0.045l-0.15,0.045l-0.151,0.046l-0.153,0.047l-0.151,0.048l-0.152,0.048l-0.153,0.05l-0.152,0.05l-0.073,0.024l0,48.041l0.024,-0.007l0.241,-0.061l0.24,-0.06l0.24,-0.059l0.242,-0.057l0.24,-0.056l0.239,-0.054l0.24,-0.053l0.241,-0.052l0.241,-0.05l0.24,-0.049l0.24,-0.047l0.24,-0.046l0.241,-0.045l0.239,-0.043l0.24,-0.042l0.241,-0.04l0.239,-0.039l0.24,-0.038l0.241,-0.036l0.239,-0.034l0.24,-0.034l0.24,-0.032l0.239,-0.03l0.239,-0.029l0.24,-0.028l0.24,-0.026l0.239,-0.024l0.239,-0.024l0.24,-0.022l0.24,-0.02l0.238,-0.019l0.238,-0.018l0.24,-0.016l0.24,-0.015l0.238,-0.013l0.238,-0.012l0.238,-0.01l0.239,-0.01l0.238,-0.007l0.238,-0.006l0.239,-0.005l0.239,-0.004l0.238,-0.001l0.237,-0.001l0.237,0.001l0.238,0.002l0.238,0.004l0.237,0.005l0.237,0.007l0.238,0.008l0.237,0.009l0.235,0.011l0.238,0.012l0.237,0.014l0.235,0.015l0.236,0.017l0.237,0.018l0.236,0.019l0.235,0.021l0.236,0.022l0.235,0.024l0.235,0.025l0.235,0.026l0.236,0.028l0.235,0.03l0.233,0.03l0.234,0.032l0.234,0.033l0.236,0.035l0.234,0.037l0.232,0.037l0.233,0.039l0.233,0.041l0.233,0.041l0.233,0.044l0.233,0.044l0.232,0.046l0.233,0.048l0.232,0.049l0.23,0.049l0.232,0.052l0.231,0.053l0.231,0.054l0.231,0.056l0.23,0.056l0.23,0.059l0.231,0.059l0.23,0.062l0.23,0.062l0.228,0.064l0.229,0.065l0.23,0.066l0.227,0.068l0.229,0.069l0.228,0.07l0.227,0.072l0.228,0.073l0.228,0.075l0.226,0.075l0.227,0.077l0.226,0.079l0.227,0.08l0.226,0.081l0.225,0.082l0.227,0.084l0.224,0.084l0.224,0.086l0.225,0.088l0.225,0.089l0.224,0.09l0.223,0.091l0.224,0.093l0.224,0.095l0.222,0.095l0.223,0.096l0.223,0.098l0.222,0.099l0.221,0.1l0.222,0.102l0.221,0.103l0.221,0.104l0.221,0.106l0.221,0.107l0.22,0.108l0.219,0.108l0.22,0.111l0.22,0.112l0.218,0.112l0.218,0.114l0.22,0.116l0.218,0.116l0.218,0.118l0.218,0.12l0.217,0.12l0.217,0.121l0.216,0.123l0.217,0.124l0.216,0.125l0.216,0.126l0.216,0.128l0.215,0.129l0.214,0.129l0.217,0.132l0.214,0.133l0.213,0.132l0.215,0.136l0.213,0.135l0.214,0.138l0.213,0.138l0.213,0.14l0.213,0.14l0.211,0.142l0.213,0.143l0.212,0.144l0.212,0.146l0.211,0.146l0.21,0.148l0.211,0.149l0.211,0.15l0.21,0.151l0.21,0.153l0.209,0.153l0.21,0.155l0.209,0.155l0.209,0.158l0.209,0.158l0.208,0.159l0.208,0.16l0.208,0.162l0.208,0.163l0.207,0.163l0.207,0.166l0.207,0.166l0.206,0.167l0.207,0.168l0.206,0.17l0.205,0.17l0.206,0.172l0.205,0.173l0.206,0.174l0.205,0.175l0.204,0.176l0.192,0.167l0,-47.857l-0.031,-0.033l-0.163,-0.168l-0.175,-0.176l-0.183,-0.182l-0.193,-0.188l-0.201,-0.193l-0.211,-0.199l-0.22,-0.203l-0.228,-0.207l-0.24,-0.215l-0.118,-0.104l-0.124,-0.109l-0.125,-0.109l-0.128,-0.11l-0.13,-0.111l-0.132,-0.112l-0.133,-0.112l-0.136,-0.114l-0.137,-0.113l-0.14,-0.115l-0.142,-0.115l-0.143,-0.116l-0.146,-0.117l-0.147,-0.117l-0.149,-0.117l-0.15,-0.118l-0.154,-0.119l-0.155,-0.119l-0.156,-0.12l-0.158,-0.119l-0.16,-0.12l-0.162,-0.12l-0.164,-0.121l-0.166,-0.121l-0.166,-0.121l-0.169,-0.121l-0.171,-0.123l-0.172,-0.121l-0.174,-0.121l-0.177,-0.123l-0.176,-0.122l-0.179,-0.122l-0.181,-0.122l-0.181,-0.121l-0.185,-0.122l-0.186,-0.123l-0.187,-0.122l-0.188,-0.121l-0.19,-0.122l-0.192,-0.121l-0.193,-0.121l-0.195,-0.121l-0.196,-0.121l-0.197,-0.119l-0.2,-0.121l-0.201,-0.12l-0.202,-0.119l-0.203,-0.118l-0.205,-0.119l-0.207,-0.118l-0.208,-0.118l-0.209,-0.117l-0.211,-0.116l-0.212,-0.116l-0.213,-0.115l-0.214,-0.115l-0.217,-0.114l-0.217,-0.114l-0.218,-0.112l-0.22,-0.112l-0.222,-0.112l-0.222,-0.111l-0.224,-0.11l-0.225,-0.109l-0.226,-0.108l-0.227,-0.107l-0.229,-0.106l-0.23,-0.106l-0.231,-0.105l-0.232,-0.103l-0.233,-0.103l-0.235,-0.102l-0.236,-0.1l-0.236,-0.1l-0.238,-0.098l-0.239,-0.098l-0.239,-0.096l-0.242,-0.095l-0.242,-0.094l-0.243,-0.093l-0.245,-0.092l-0.245,-0.09l-0.246,-0.089l-0.247,-0.088l-0.248,-0.086l-0.249,-0.085l-0.25,-0.084l-0.252,-0.082l-0.251,-0.081l-0.254,-0.08l-0.253,-0.078l-0.255,-0.077l-0.256,-0.075l-0.256,-0.073l-0.257,-0.072l-0.259,-0.071l-0.26,-0.069l-0.259,-0.067l-0.261,-0.066l-0.262,-0.064l-0.262,-0.062l-0.263,-0.061l-0.264,-0.059l-0.265,-0.057l-0.266,-0.056l-0.267,-0.053l-0.267,-0.052l-0.267,-0.05l-0.269,-0.049l-0.27,-0.046l-0.269,-0.045l-0.271,-0.042l-0.272,-0.041l-0.272,-0.038l-0.273,-0.037l-0.273,-0.035l-0.275,-0.033l-0.275,-0.03l-0.276,-0.029l-0.276,-0.027l-0.277,-0.024l-0.277,-0.023l-0.278,-0.02l-0.278,-0.018l-0.28,-0.016l-0.28,-0.014l-0.282,-0.011l-0.281,-0.009l-0.281,-0.007l-0.283,-0.005l-0.283,-0.003l-0.284,0l-0.284,0.002Z"/><path d="M104.677,5.681l4.132,3.805l0,60.569l-5.62,-11.148l5.62,11.148c-13.776,-4.785 -33.034,-0.92 -53.473,8.473" style="fill:#fff;stroke:#000;stroke-width:5px;"/><path d="M54.188,78.528c15.846,-18.36 32.799,-24.658 51.454,-16.741l0,-58.451c-30.021,-13.077 -56.167,16.667 -51.454,14.376l0,60.816Z" style="fill:#fff;"/><path d="M90.316,0.003l0.327,0.005l0.327,0.008l0.328,0.011l0.329,0.014l0.329,0.016l0.33,0.019l0.331,0.022l0.332,0.026l0.333,0.027l0.333,0.031l0.334,0.034l0.334,0.037l0.335,0.04l0.336,0.043l0.337,0.046l0.168,0.025l0.169,0.025l0.169,0.025l0.169,0.027l0.169,0.027l0.169,0.029l0.169,0.029l0.17,0.029l0.17,0.031l0.17,0.031l0.17,0.033l0.17,0.033l0.17,0.033l0.171,0.035l0.17,0.036l0.171,0.036l0.171,0.037l0.171,0.038l0.171,0.039l0.171,0.04l0.172,0.04l0.172,0.041l0.171,0.043l0.172,0.043l0.172,0.044l0.172,0.044l0.172,0.046l0.173,0.047l0.172,0.047l0.173,0.048l0.173,0.05l0.173,0.05l0.173,0.051l0.173,0.051l0.173,0.053l0.173,0.054l0.174,0.054l0.174,0.056l0.173,0.056l0.174,0.057l0.174,0.058l0.174,0.059l0.174,0.06l0.174,0.061l0.175,0.062l0.174,0.063l0.175,0.064l0.175,0.064l0.174,0.066l0.175,0.066l0.175,0.068l0.175,0.068l0.176,0.069l0.175,0.071l0.175,0.071l0.176,0.072l0.175,0.074l0.176,0.074l0.176,0.075l0.176,0.076l0,58.451l-0.219,-0.093l-0.218,-0.09l-0.218,-0.09l-0.218,-0.088l-0.218,-0.087l-0.218,-0.086l-0.218,-0.084l-0.217,-0.083l-0.217,-0.082l-0.218,-0.08l-0.217,-0.079l-0.216,-0.078l-0.217,-0.077l-0.217,-0.075l-0.216,-0.074l-0.216,-0.073l-0.216,-0.071l-0.216,-0.07l-0.216,-0.069l-0.216,-0.068l-0.215,-0.066l-0.215,-0.065l-0.216,-0.063l-0.215,-0.063l-0.214,-0.061l-0.215,-0.06l-0.215,-0.058l-0.214,-0.058l-0.214,-0.056l-0.214,-0.054l-0.214,-0.054l-0.214,-0.052l-0.214,-0.051l-0.213,-0.049l-0.214,-0.049l-0.213,-0.047l-0.213,-0.046l-0.213,-0.044l-0.213,-0.043l-0.212,-0.042l-0.213,-0.041l-0.212,-0.039l-0.212,-0.039l-0.212,-0.036l-0.212,-0.036l-0.212,-0.034l-0.212,-0.033l-0.211,-0.032l-0.211,-0.031l-0.212,-0.029l-0.211,-0.028l-0.211,-0.027l-0.21,-0.025l-0.211,-0.025l-0.21,-0.023l-0.211,-0.021l-0.21,-0.021l-0.21,-0.019l-0.21,-0.018l-0.209,-0.017l-0.21,-0.015l-0.209,-0.014l-0.21,-0.013l-0.209,-0.012l-0.209,-0.01l-0.209,-0.01l-0.208,-0.008l-0.209,-0.006l-0.208,-0.006l-0.209,-0.004l-0.208,-0.003l-0.208,-0.001l-0.208,-0.001l-0.207,0.001l-0.208,0.002l-0.207,0.003l-0.208,0.005l-0.207,0.006l-0.207,0.007l-0.207,0.008l-0.207,0.009l-0.206,0.011l-0.207,0.012l-0.206,0.013l-0.206,0.015l-0.206,0.015l-0.206,0.017l-0.206,0.018l-0.206,0.02l-0.205,0.02l-0.206,0.022l-0.205,0.023l-0.205,0.025l-0.205,0.025l-0.205,0.027l-0.205,0.028l-0.204,0.029l-0.205,0.031l-0.204,0.031l-0.204,0.033l-0.204,0.034l-0.204,0.036l-0.204,0.036l-0.203,0.038l-0.204,0.039l-0.203,0.04l-0.203,0.042l-0.204,0.042l-0.202,0.044l-0.203,0.045l-0.203,0.047l-0.203,0.047l-0.202,0.049l-0.202,0.05l-0.202,0.051l-0.202,0.053l-0.202,0.053l-0.202,0.055l-0.202,0.056l-0.201,0.057l-0.202,0.059l-0.201,0.06l-0.201,0.06l-0.201,0.062l-0.201,0.064l-0.201,0.064l-0.2,0.066l-0.201,0.067l-0.2,0.068l-0.2,0.069l-0.2,0.071l-0.2,0.071l-0.2,0.073l-0.2,0.074l-0.199,0.076l-0.2,0.076l-0.199,0.078l-0.199,0.079l-0.2,0.08l-0.198,0.081l-0.199,0.083l-0.199,0.083l-0.199,0.085l-0.198,0.086l-0.198,0.087l-0.199,0.089l-0.198,0.09l-0.198,0.09l-0.197,0.092l-0.198,0.093l-0.198,0.095l-0.197,0.095l-0.197,0.097l-0.198,0.098l-0.197,0.099l-0.197,0.1l-0.196,0.102l-0.197,0.103l-0.197,0.103l-0.196,0.105l-0.197,0.107l-0.196,0.107l-0.196,0.108l-0.196,0.11l-0.196,0.111l-0.195,0.112l-0.196,0.113l-0.196,0.115l-0.195,0.115l-0.195,0.117l-0.195,0.118l-0.195,0.119l-0.195,0.12l-0.195,0.122l-0.195,0.122l-0.194,0.124l-0.195,0.125l-0.194,0.126l-0.194,0.127l-0.194,0.129l-0.194,0.129l-0.194,0.131l-0.194,0.132l-0.193,0.133l-0.194,0.134l-0.193,0.136l-0.193,0.136l-0.194,0.138l-0.193,0.139l-0.193,0.14l-0.192,0.141l-0.193,0.142l-0.193,0.144l-0.192,0.144l-0.192,0.146l-0.193,0.147l-0.192,0.148l-0.192,0.149l-0.192,0.151l-0.191,0.151l-0.192,0.153l-0.191,0.154l-0.192,0.155l-0.191,0.156l-0.191,0.157l-0.191,0.159l-0.191,0.159l-0.191,0.161l-0.191,0.162l-0.191,0.163l-0.19,0.164l-0.191,0.165l-0.19,0.166l-0.19,0.168l-0.19,0.169l-0.19,0.169l-0.19,0.171l-0.19,0.172l-0.189,0.174l-0.19,0.174l-0.189,0.175l-0.19,0.177l-0.189,0.178l-0.189,0.179l-0.189,0.179l-0.189,0.182l-0.189,0.182l-0.188,0.183l-0.189,0.185l-0.188,0.185l-0.189,0.187l-0.188,0.188l-0.188,0.189l-0.188,0.19l-0.188,0.191l-0.188,0.193l-0.188,0.193l-0.187,0.195l-0.188,0.195l-0.187,0.197l-0.187,0.198l-0.188,0.199l-0.187,0.2l-0.187,0.202l-0.186,0.202l-0.187,0.204l-0.187,0.204l-0.186,0.206l-0.187,0.207l-0.186,0.208l-0.187,0.209l-0.186,0.21l-0.186,0.211l-0.186,0.213l-0.186,0.213l-0.185,0.215l0,-60.816l-0.054,0.026l-0.051,0.022l-0.048,0.02l-0.046,0.017l-0.042,0.013l-0.04,0.012l-0.037,0.008l-0.035,0.006l-0.031,0.002l-0.029,0.001l-0.026,-0.003l-0.012,-0.002l-0.011,-0.003l-0.011,-0.004l-0.01,-0.004l-0.009,-0.005l-0.009,-0.005l-0.008,-0.006l-0.007,-0.007l-0.007,-0.007l-0.006,-0.008l-0.005,-0.009l-0.005,-0.009l-0.004,-0.01l-0.003,-0.011l-0.003,-0.011l-0.002,-0.011l-0.002,-0.026l0.001,-0.027l0.003,-0.03l0.006,-0.033l0.009,-0.034l0.011,-0.037l0.013,-0.04l0.017,-0.041l0.018,-0.044l0.022,-0.046l0.024,-0.048l0.026,-0.05l0.029,-0.052l0.032,-0.054l0.034,-0.057l0.036,-0.058l0.039,-0.061l0.042,-0.062l0.044,-0.064l0.046,-0.066l0.049,-0.069l0.051,-0.07l0.054,-0.071l0.056,-0.074l0.058,-0.075l0.061,-0.078l0.064,-0.078l0.065,-0.081l0.068,-0.082l0.071,-0.084l0.073,-0.086l0.152,-0.176l0.162,-0.182l0.171,-0.187l0.181,-0.194l0.189,-0.199l0.198,-0.205l0.207,-0.209l0.216,-0.215l0.225,-0.219l0.234,-0.224l0.242,-0.227l0.25,-0.232l0.259,-0.236l0.268,-0.239l0.137,-0.121l0.139,-0.122l0.141,-0.122l0.142,-0.124l0.145,-0.124l0.148,-0.124l0.149,-0.126l0.151,-0.126l0.153,-0.126l0.155,-0.128l0.157,-0.128l0.159,-0.128l0.161,-0.129l0.163,-0.129l0.164,-0.13l0.167,-0.131l0.169,-0.13l0.17,-0.132l0.173,-0.131l0.174,-0.132l0.176,-0.132l0.178,-0.133l0.18,-0.132l0.182,-0.133l0.184,-0.133l0.185,-0.134l0.188,-0.133l0.189,-0.134l0.191,-0.134l0.193,-0.133l0.194,-0.134l0.196,-0.134l0.198,-0.134l0.2,-0.133l0.202,-0.134l0.203,-0.134l0.205,-0.133l0.207,-0.134l0.208,-0.133l0.21,-0.133l0.212,-0.132l0.213,-0.133l0.216,-0.132l0.216,-0.132l0.219,-0.132l0.22,-0.131l0.222,-0.131l0.223,-0.13l0.225,-0.13l0.227,-0.13l0.228,-0.129l0.229,-0.128l0.232,-0.128l0.233,-0.127l0.234,-0.127l0.236,-0.126l0.237,-0.126l0.239,-0.125l0.241,-0.124l0.242,-0.123l0.243,-0.123l0.245,-0.121l0.247,-0.121l0.248,-0.121l0.249,-0.119l0.251,-0.118l0.252,-0.118l0.254,-0.116l0.255,-0.116l0.257,-0.114l0.257,-0.114l0.26,-0.112l0.26,-0.112l0.262,-0.11l0.264,-0.109l0.265,-0.108l0.266,-0.107l0.267,-0.105l0.269,-0.105l0.27,-0.103l0.271,-0.101l0.273,-0.101l0.274,-0.099l0.275,-0.098l0.277,-0.096l0.277,-0.095l0.279,-0.093l0.28,-0.092l0.282,-0.09l0.282,-0.089l0.284,-0.088l0.285,-0.085l0.286,-0.084l0.288,-0.083l0.288,-0.081l0.29,-0.079l0.291,-0.077l0.292,-0.076l0.293,-0.074l0.294,-0.072l0.296,-0.07l0.296,-0.068l0.297,-0.067l0.299,-0.064l0.3,-0.063l0.3,-0.06l0.302,-0.059l0.303,-0.057l0.304,-0.054l0.305,-0.053l0.306,-0.05l0.307,-0.048l0.307,-0.046l0.309,-0.044l0.31,-0.042l0.311,-0.039l0.312,-0.038l0.312,-0.035l0.314,-0.032l0.314,-0.031l0.316,-0.028l0.316,-0.025l0.318,-0.023l0.318,-0.021l0.319,-0.018l0.32,-0.016l0.32,-0.013l0.322,-0.01l0.322,-0.008l0.324,-0.006l0.324,-0.003l0.325,0l0.325,0.003Zm-0.628,4.997l-0.283,0.003l-0.283,0.005l-0.281,0.007l-0.282,0.009l-0.281,0.011l-0.28,0.014l-0.28,0.016l-0.279,0.018l-0.277,0.02l-0.277,0.023l-0.277,0.024l-0.277,0.027l-0.275,0.029l-0.275,0.03l-0.275,0.033l-0.273,0.035l-0.273,0.037l-0.272,0.038l-0.272,0.041l-0.271,0.042l-0.269,0.045l-0.271,0.046l-0.268,0.049l-0.267,0.05l-0.268,0.052l-0.266,0.053l-0.266,0.056l-0.265,0.057l-0.264,0.059l-0.263,0.061l-0.262,0.062l-0.262,0.064l-0.261,0.066l-0.259,0.067l-0.26,0.069l-0.259,0.071l-0.257,0.072l-0.256,0.073l-0.256,0.075l-0.255,0.077l-0.253,0.078l-0.254,0.08l-0.252,0.081l-0.251,0.082l-0.25,0.084l-0.249,0.085l-0.248,0.086l-0.247,0.088l-0.247,0.089l-0.245,0.09l-0.244,0.092l-0.243,0.093l-0.242,0.094l-0.242,0.095l-0.239,0.096l-0.239,0.098l-0.238,0.098l-0.236,0.099l-0.237,0.102l-0.234,0.101l-0.233,0.103l-0.232,0.104l-0.231,0.104l-0.23,0.106l-0.229,0.106l-0.227,0.107l-0.226,0.108l-0.225,0.109l-0.224,0.11l-0.222,0.111l-0.222,0.112l-0.22,0.112l-0.218,0.112l-0.217,0.114l-0.217,0.114l-0.214,0.115l-0.214,0.115l-0.211,0.116l-0.211,0.117l-0.209,0.116l-0.208,0.118l-0.207,0.119l-0.205,0.118l-0.203,0.118l-0.202,0.119l-0.201,0.12l-0.199,0.12l-0.198,0.12l-0.197,0.122l-0.195,0.12l-0.192,0.121l-0.192,0.122l-0.19,0.121l-0.188,0.121l-0.188,0.122l-0.186,0.123l-0.184,0.122l-0.181,0.121l-0.181,0.122l-0.179,0.122l-0.177,0.122l-0.177,0.123l-0.173,0.121l-0.172,0.121l-0.171,0.122l-0.168,0.121l-0.168,0.122l-0.165,0.121l-0.164,0.12l-0.162,0.121l-0.16,0.12l-0.158,0.12l-0.157,0.119l-0.154,0.119l-0.153,0.119l-0.152,0.118l-0.148,0.117l-0.148,0.117l-0.145,0.116l-0.143,0.116l-0.143,0.116l-0.139,0.115l-0.137,0.113l-0.137,0.114l-0.132,0.112l-0.132,0.111l-0.131,0.112l-0.127,0.11l-0.125,0.109l-0.124,0.109l-0.118,0.103l-0.24,0.216l-0.228,0.207l-0.219,0.203l-0.212,0.199l-0.202,0.193l-0.192,0.187l-0.183,0.183l-0.175,0.176l-0.163,0.168l-0.031,0.033l0,47.857l0.192,-0.167l0.204,-0.176l0.205,-0.175l0.206,-0.174l0.204,-0.173l0.206,-0.172l0.206,-0.17l0.206,-0.17l0.207,-0.168l0.206,-0.167l0.207,-0.167l0.207,-0.165l0.207,-0.163l0.208,-0.163l0.208,-0.162l0.208,-0.16l0.208,-0.159l0.209,-0.158l0.209,-0.157l0.209,-0.156l0.21,-0.155l0.209,-0.153l0.21,-0.153l0.21,-0.151l0.211,-0.15l0.21,-0.149l0.212,-0.148l0.21,-0.146l0.212,-0.145l0.212,-0.145l0.213,-0.143l0.211,-0.142l0.213,-0.14l0.212,-0.14l0.214,-0.138l0.213,-0.137l0.214,-0.136l0.215,-0.136l0.213,-0.133l0.215,-0.132l0.215,-0.132l0.214,-0.129l0.216,-0.129l0.216,-0.128l0.216,-0.126l0.216,-0.125l0.216,-0.124l0.217,-0.123l0.217,-0.121l0.217,-0.12l0.219,-0.12l0.217,-0.118l0.218,-0.116l0.22,-0.116l0.218,-0.114l0.218,-0.112l0.22,-0.112l0.22,-0.111l0.219,-0.108l0.219,-0.108l0.222,-0.107l0.221,-0.106l0.221,-0.104l0.221,-0.103l0.222,-0.102l0.221,-0.1l0.222,-0.099l0.223,-0.098l0.222,-0.096l0.223,-0.095l0.224,-0.095l0.224,-0.093l0.223,-0.091l0.223,-0.09l0.225,-0.089l0.226,-0.088l0.224,-0.086l0.225,-0.084l0.225,-0.084l0.225,-0.082l0.227,-0.082l0.227,-0.079l0.225,-0.078l0.228,-0.078l0.226,-0.075l0.228,-0.075l0.228,-0.073l0.226,-0.072l0.229,-0.07l0.229,-0.069l0.227,-0.068l0.229,-0.066l0.23,-0.066l0.228,-0.063l0.23,-0.062l0.23,-0.062l0.231,-0.059l0.23,-0.059l0.23,-0.056l0.23,-0.056l0.232,-0.054l0.231,-0.053l0.232,-0.052l0.23,-0.05l0.232,-0.048l0.233,-0.048l0.232,-0.046l0.233,-0.044l0.232,-0.043l0.234,-0.042l0.233,-0.041l0.233,-0.039l0.232,-0.037l0.234,-0.037l0.236,-0.035l0.234,-0.033l0.234,-0.032l0.233,-0.03l0.235,-0.03l0.236,-0.028l0.235,-0.026l0.235,-0.025l0.235,-0.024l0.236,-0.022l0.235,-0.021l0.236,-0.019l0.237,-0.018l0.236,-0.017l0.235,-0.015l0.237,-0.014l0.238,-0.012l0.235,-0.011l0.237,-0.009l0.238,-0.008l0.237,-0.007l0.237,-0.005l0.238,-0.004l0.238,-0.002l0.237,-0.001l0.237,0.001l0.238,0.001l0.239,0.004l0.239,0.005l0.238,0.006l0.238,0.007l0.239,0.01l0.238,0.01l0.238,0.012l0.238,0.013l0.24,0.015l0.24,0.016l0.238,0.018l0.238,0.019l0.24,0.02l0.24,0.022l0.239,0.024l0.239,0.024l0.24,0.026l0.24,0.028l0.239,0.029l0.239,0.03l0.24,0.032l0.24,0.034l0.239,0.034l0.241,0.036l0.24,0.038l0.239,0.039l0.241,0.04l0.24,0.042l0.239,0.043l0.241,0.045l0.24,0.046l0.24,0.047l0.24,0.049l0.241,0.05l0.24,0.052l0.241,0.053l0.239,0.054l0.24,0.056l0.242,0.057l0.24,0.059l0.24,0.06l0.24,0.061l0.025,0.007l0,-48.041l-0.073,-0.024l-0.152,-0.05l-0.153,-0.05l-0.152,-0.048l-0.151,-0.048l-0.153,-0.047l-0.151,-0.046l-0.151,-0.045l-0.152,-0.045l-0.151,-0.044l-0.15,-0.042l-0.152,-0.043l-0.151,-0.041l-0.149,-0.041l-0.151,-0.039l-0.15,-0.04l-0.15,-0.038l-0.15,-0.038l-0.152,-0.037l-0.149,-0.036l-0.147,-0.035l-0.151,-0.035l-0.149,-0.033l-0.148,-0.033l-0.151,-0.033l-0.148,-0.031l-0.149,-0.031l-0.149,-0.031l-0.148,-0.029l-0.147,-0.029l-0.148,-0.028l-0.149,-0.027l-0.148,-0.027l-0.148,-0.026l-0.147,-0.025l-0.148,-0.025l-0.147,-0.023l-0.147,-0.024l-0.146,-0.022l-0.147,-0.022l-0.141,-0.02l-0.299,-0.041l-0.293,-0.038l-0.292,-0.034l-0.29,-0.032l-0.291,-0.03l-0.29,-0.027l-0.29,-0.024l-0.289,-0.022l-0.288,-0.019l-0.288,-0.017l-0.287,-0.015l-0.287,-0.011l-0.286,-0.01l-0.286,-0.007l-0.284,-0.005l-0.284,-0.002l-0.284,0Z"/><g transform="matrix(0.996616,0.0821927,-0.0821927,0.996616,-141.052,36.0468)"><text x="154.843px" y="-33.736px" style="font-family:'CourierNewPSMT', 'Courier New', monospace;font-size:7px;stroke:#000;stroke-width:1px;stroke-linecap:butt;stroke-miterlimit:1.41421;">{</text></g><g transform="matrix(1,0,0,1,-647.151,-1636.64)"><g transform="matrix(0.989838,0.1422,-0.1422,0.989838,243.089,-78.0141)"><text x="667.381px" y="1661.8px" style="font-family:'CourierNewPSMT', 'Courier New', monospace;font-size:7px;stroke:#000;stroke-width:1px;stroke-linecap:butt;stroke-miterlimit:1.41421;">n</text></g><g transform="matrix(0.980216,0.197932,-0.197932,0.980216,342.327,-100.029)"><text x="671.532px" y="1662.39px" style="font-family:'CourierNewPSMT', 'Courier New', monospace;font-size:7px;stroke:#000;stroke-width:1px;stroke-linecap:butt;stroke-miterlimit:1.41421;">i</text></g><g transform="matrix(0.966703,0.255901,-0.255901,0.966703,448.117,-117.521)"><text x="675.658px" y="1663.22px" style="font-family:'CourierNewPSMT', 'Courier New', monospace;font-size:7px;stroke:#000;stroke-width:1px;stroke-linecap:butt;stroke-miterlimit:1.41421;">d</text></g><g transform="matrix(0.950106,0.311928,-0.311928,0.950106,553.053,-128.984)"><text x="679.716px" y="1664.29px" style="font-family:'CourierNewPSMT', 'Courier New', monospace;font-size:7px;stroke:#000;stroke-width:1px;stroke-linecap:butt;stroke-miterlimit:1.41421;">:</text></g><g transform="matrix(0.927675,0.373388,-0.373388,0.927675,671.365,-134.826)"><text x="683.712px" y="1665.6px" style="font-family:'CourierNewPSMT', 'Courier New', monospace;font-size:7px;stroke:#000;stroke-width:1px;stroke-linecap:butt;stroke-miterlimit:1.41421;">1</text></g><g transform="matrix(0.90147,0.432842,-0.432842,0.90147,789.375,-133.358)"><text x="687.607px" y="1667.18px" style="font-family:'CourierNewPSMT', 'Courier New', monospace;font-size:7px;stroke:#000;stroke-width:1px;stroke-linecap:butt;stroke-miterlimit:1.41421;">,</text></g></g><g transform="matrix(1,0,0,1,-648.151,-1626.64)"><g transform="matrix(0.989487,0.144621,-0.144621,0.989487,247.346,-79.0462)"><text x="667.374px" y="1661.79px" style="font-family:'CourierNewPSMT', 'Courier New', monospace;font-size:7px;stroke:#000;stroke-width:1px;stroke-linecap:butt;stroke-miterlimit:1.41421;">f</text></g><g transform="matrix(0.980242,0.197804,-0.197804,0.980242,342.097,-99.9857)"><text x="671.533px" y="1662.39px" style="font-family:'CourierNewPSMT', 'Courier New', monospace;font-size:7px;stroke:#000;stroke-width:1px;stroke-linecap:butt;stroke-miterlimit:1.41421;">o</text></g><g transform="matrix(0.967283,0.253699,-0.253699,0.967283,444.064,-116.997)"><text x="675.652px" y="1663.23px" style="font-family:'CourierNewPSMT', 'Courier New', monospace;font-size:7px;stroke:#000;stroke-width:1px;stroke-linecap:butt;stroke-miterlimit:1.41421;">o</text></g><g transform="matrix(0.950106,0.311928,-0.311928,0.950106,553.053,-128.984)"><text x="679.716px" y="1664.29px" style="font-family:'CourierNewPSMT', 'Courier New', monospace;font-size:7px;stroke:#000;stroke-width:1px;stroke-linecap:butt;stroke-miterlimit:1.41421;">:</text></g><g transform="matrix(0.928413,0.37155,-0.37155,0.928413,667.801,-134.797)"><text x="683.712px" y="1665.6px" style="font-family:'CourierNewPSMT', 'Courier New', monospace;font-size:7px;stroke:#ff5130;stroke-width:1px;stroke-linecap:butt;stroke-miterlimit:1.41421;">b</text></g><g transform="matrix(0.898444,0.439087,-0.439087,0.898444,801.86,-132.61)"><text x="687.607px" y="1667.16px" style="font-family:'CourierNewPSMT', 'Courier New', monospace;font-size:7px;stroke:#ff5130;stroke-width:1px;stroke-linecap:butt;stroke-miterlimit:1.41421;">a</text></g><g transform="matrix(0.861031,0.508553,-0.508553,0.861031,944.857,-119.667)"><text x="691.387px" y="1669px" style="font-family:'CourierNewPSMT', 'Courier New', monospace;font-size:7px;stroke:#ff5130;stroke-width:1px;stroke-linecap:butt;stroke-miterlimit:1.41421;">r</text></g></g><g transform="matrix(0.996631,0.0820119,-0.0820119,0.996631,-138.299,36.1058)"><text x="154.525px" y="-3.984px" style="font-family:'CourierNewPSMT', 'Courier New', monospace;font-size:7px;stroke:#000;stroke-width:1px;stroke-linecap:butt;stroke-miterlimit:1.41421;">}</text></g><g transform="matrix(1,0,0,1,-647.599,-1644.77)"><g transform="matrix(0.903083,-0.429465,0.429465,0.903083,-647.782,467.676)"><text x="712.313px" y="1669.09px" style="font-family:'CourierNewPSMT', 'Courier New', monospace;font-size:7px;stroke:#000;stroke-width:1px;stroke-linecap:butt;stroke-miterlimit:1.41421;">c</text></g><g transform="matrix(0.928084,-0.372372,0.372372,0.928084,-569.352,386.564)"><text x="716.108px" y="1667.29px" style="font-family:'CourierNewPSMT', 'Courier New', monospace;font-size:7px;stroke:#000;stroke-width:1px;stroke-linecap:butt;stroke-miterlimit:1.41421;">o</text></g><g transform="matrix(0.948368,-0.317171,0.317171,0.948368,-491.143,314.37)"><text x="720.012px" y="1665.72px" style="font-family:'CourierNewPSMT', 'Courier New', monospace;font-size:7px;stroke:#000;stroke-width:1px;stroke-linecap:butt;stroke-miterlimit:1.41421;">n</text></g><g transform="matrix(0.965911,-0.258875,0.258875,0.965911,-406.19,244.16)"><text x="723.986px" y="1664.39px" style="font-family:'CourierNewPSMT', 'Courier New', monospace;font-size:7px;stroke:#000;stroke-width:1px;stroke-linecap:butt;stroke-miterlimit:1.41421;">ﬁ</text></g><g transform="matrix(0.981114,-0.193429,0.193429,0.981114,-307.981,172.238)"><text x="728.049px" y="1663.3px" style="font-family:'CourierNewPSMT', 'Courier New', monospace;font-size:7px;stroke:#000;stroke-width:1px;stroke-linecap:butt;stroke-miterlimit:1.41421;">g</text></g><g transform="matrix(0.992371,-0.123288,0.123288,0.992371,-199.378,102.951)"><text x="732.175px" y="1662.48px" style="font-family:'CourierNewPSMT', 'Courier New', monospace;font-size:7px;stroke:#000;stroke-width:1px;stroke-linecap:butt;stroke-miterlimit:1.41421;">:</text></g></g><g transform="matrix(1,0,0,1,-647.599,-1635.44)"><g transform="matrix(0.928124,-0.37227,0.37227,0.928124,-569.212,386.422)"><text x="716.105px" y="1667.29px" style="font-family:'CourierNewPSMT', 'Courier New', monospace;font-size:7px;stroke:#000;stroke-width:1px;stroke-linecap:butt;stroke-miterlimit:1.41421;">i</text></g><g transform="matrix(0.949116,-0.314926,0.314926,0.949116,-487.943,311.506)"><text x="720.003px" y="1665.72px" style="font-family:'CourierNewPSMT', 'Courier New', monospace;font-size:7px;stroke:#000;stroke-width:1px;stroke-linecap:butt;stroke-miterlimit:1.41421;">d</text></g><g transform="matrix(0.965991,-0.258577,0.258577,0.965991,-405.75,243.812)"><text x="723.993px" y="1664.39px" style="font-family:'CourierNewPSMT', 'Courier New', monospace;font-size:7px;stroke:#000;stroke-width:1px;stroke-linecap:butt;stroke-miterlimit:1.41421;">:</text></g><g transform="matrix(0.980869,-0.194669,0.194669,0.980869,-309.865,173.55)"><text x="728.052px" y="1663.3px" style="font-family:'CourierNewPSMT', 'Courier New', monospace;font-size:7px;stroke:#000;stroke-width:1px;stroke-linecap:butt;stroke-miterlimit:1.41421;">1</text></g></g><g transform="matrix(1,0,0,1,-647.599,-1626.41)"><g transform="matrix(0.928981,-0.370128,0.370128,0.928981,-566.251,383.46)"><text x="716.106px" y="1667.28px" style="font-family:'CourierNewPSMT', 'Courier New', monospace;font-size:7px;stroke:#000;stroke-width:1px;stroke-linecap:butt;stroke-miterlimit:1.41421;">f</text></g><g transform="matrix(0.948452,-0.316922,0.316922,0.948452,-490.789,314.053)"><text x="720.013px" y="1665.72px" style="font-family:'CourierNewPSMT', 'Courier New', monospace;font-size:7px;stroke:#000;stroke-width:1px;stroke-linecap:butt;stroke-miterlimit:1.41421;">o</text></g><g transform="matrix(0.965991,-0.258577,0.258577,0.965991,-405.75,243.813)"><text x="723.994px" y="1664.39px" style="font-family:'CourierNewPSMT', 'Courier New', monospace;font-size:7px;stroke:#000;stroke-width:1px;stroke-linecap:butt;stroke-miterlimit:1.41421;">o</text></g><g transform="matrix(0.980869,-0.194669,0.194669,0.980869,-309.865,173.549)"><text x="728.049px" y="1663.3px" style="font-family:'CourierNewPSMT', 'Courier New', monospace;font-size:7px;stroke:#000;stroke-width:1px;stroke-linecap:butt;stroke-miterlimit:1.41421;">:</text></g></g><g transform="matrix(1,0,0,1,-647.599,-1616.7)"><g transform="matrix(0.948452,-0.316922,0.316922,0.948452,-490.789,314.053)"><text x="720.013px" y="1665.72px" style="font-family:'CourierNewPSMT', 'Courier New', monospace;font-size:7px;stroke:#000;stroke-width:1px;stroke-linecap:butt;stroke-miterlimit:1.41421;">-</text></g><g transform="matrix(0.980482,-0.19661,0.19661,0.980482,-312.812,175.608)"><text x="728.055px" y="1663.31px" style="font-family:'CourierNewPSMT', 'Courier New', monospace;font-size:7px;stroke:#ff5130;stroke-width:1px;stroke-linecap:butt;stroke-miterlimit:1.41421;">b</text></g><g transform="matrix(0.992448,-0.122664,0.122664,0.992448,-198.398,102.366)"><text x="732.169px" y="1662.48px" style="font-family:'CourierNewPSMT', 'Courier New', monospace;font-size:7px;stroke:#ff5130;stroke-width:1px;stroke-linecap:butt;stroke-miterlimit:1.41421;">a</text></g><g transform="matrix(0.999143,-0.0414002,0.0414002,0.999143,-68.174,31.9096)"><text x="736.344px" y="1661.96px" style="font-family:'CourierNewPSMT', 'Courier New', monospace;font-size:7px;stroke:#ff5130;stroke-width:1px;stroke-linecap:butt;stroke-miterlimit:1.41421;">r</text></g></g></g></svg>