<?xml version="1.0" encoding="UTF-8" standalone="no"?><!DOCTYPE svg PUBLIC "-//W3C//DTD SVG 1.1//EN" "http://www.w3.org/Graphics/SVG/1.1/DTD/svg11.dtd"><svg width="100%" height="100%" viewBox="0 0 104 81" version="1.1" xmlns="http://www.w3.org/2000/svg" xmlns:xlink="http://www.w3.org/1999/xlink" xml:space="preserve" xmlns:serif="http://www.serif.com/" style="fill-rule:evenodd;clip-rule:evenodd;stroke-linecap:round;stroke-linejoin:round;stroke-miterlimit:1.5;"><g id="cards"><g><path d="M43.932,6.483c-1.437,-3.339 -5.316,-4.883 -8.655,-3.445l-28.794,12.399c-3.339,1.438 -4.883,5.316 -3.445,8.655l20.576,47.783c1.438,3.339 5.316,4.883 8.655,3.445l28.794,-12.399c3.339,-1.437 4.883,-5.316 3.445,-8.655l-20.576,-47.783Z" style="fill:#fff;stroke:#000;stroke-width:5px;"/><path d="M13.82,17.694l-6.965,2.999l2.999,6.965l6.965,-2.999l-2.999,-6.965Z" style="fill:#979797;"/><path d="M43.991,17.725l-32.598,14.037l4.409,10.241l32.599,-14.037l-4.41,-10.241Z" style="fill:#979797;"/><path d="M56.001,45.614l-32.599,14.037l4.41,10.241l32.598,-14.037l-4.409,-10.241Z" style="fill:#979797;"/><path d="M34.811,38.732l-17.223,7.417l0.74,1.718l17.223,-7.417l-0.74,-1.718Z" style="fill:#979797;"/><path d="M37.939,41.74l-18.769,8.082l0.74,1.719l18.769,-8.083l-0.74,-1.718Z" style="fill:#979797;"/><path d="M41.632,44.505l-20.88,8.991l0.74,1.719l20.88,-8.992l-0.74,-1.718Z" style="fill:#979797;"/></g><g><path d="M59.872,8.631c-0.754,-3.556 -4.253,-5.832 -7.81,-5.078l-30.669,6.497c-3.557,0.754 -5.833,4.253 -5.079,7.81l10.783,50.895c0.754,3.557 4.253,5.832 7.81,5.079l30.669,-6.498c3.557,-0.754 5.832,-4.253 5.079,-7.81l-10.783,-50.895Z" style="fill:#fff;stroke:#000;stroke-width:5px;"/><path d="M28.143,13.706l-7.418,1.571l1.572,7.418l7.418,-1.571l-1.572,-7.418Z" style="fill:#979797;"/><path d="M57.72,19.666l-34.722,7.357l2.311,10.907l34.722,-7.357l-2.311,-10.907Z" style="fill:#979797;"/><path d="M64.014,49.371l-34.722,7.357l2.311,10.907l34.722,-7.356l-2.311,-10.908Z" style="fill:#979797;"/><path d="M44.59,38.459l-18.345,3.887l0.388,1.83l18.345,-3.887l-0.388,-1.83Z" style="fill:#979797;"/><path d="M47.066,42.023l-19.992,4.236l0.388,1.83l19.992,-4.236l-0.388,-1.83Z" style="fill:#979797;"/><path d="M50.143,45.46l-22.24,4.712l0.388,1.83l22.24,-4.712l-0.388,-1.83Z" style="fill:#979797;"/></g><g><path d="M75.978,12.661c-0.042,-3.635 -3.028,-6.553 -6.663,-6.51l-31.348,0.363c-3.636,0.042 -6.553,3.028 -6.511,6.663l0.603,52.021c0.043,3.636 3.028,6.553 6.664,6.511l31.348,-0.364c3.635,-0.042 6.552,-3.027 6.51,-6.663l-0.603,-52.021Z" style="fill:#fff;stroke:#000;stroke-width:5px;"/><path d="M43.87,11.421l-7.582,0.088l0.088,7.582l7.582,-0.088l-0.088,-7.582Z" style="fill:#979797;"/><path d="M71.706,23.06l-35.49,0.412l0.129,11.148l35.49,-0.411l-0.129,-11.149Z" style="fill:#979797;"/><path d="M72.058,53.423l-35.49,0.411l0.129,11.149l35.49,-0.412l-0.129,-11.148Z" style="fill:#979797;"/><path d="M55.149,38.917l-18.751,0.217l0.021,1.871l18.752,-0.218l-0.022,-1.87Z" style="fill:#979797;"/><path d="M56.879,42.897l-20.435,0.237l0.022,1.87l20.434,-0.237l-0.021,-1.87Z" style="fill:#979797;"/><path d="M59.223,46.87l-22.733,0.263l0.022,1.871l22.733,-0.264l-0.022,-1.87Z" style="fill:#979797;"/></g><g><path d="M89.089,14.541c0.402,-3.613 -2.205,-6.873 -5.818,-7.275l-31.157,-3.471c-3.614,-0.402 -6.874,2.205 -7.276,5.818l-5.759,51.705c-0.403,3.613 2.204,6.873 5.817,7.276l31.158,3.47c3.613,0.403 6.873,-2.204 7.276,-5.817l5.759,-51.706Z" style="fill:#fff;stroke:#000;stroke-width:5px;"/><path d="M57.373,9.387l-7.536,-0.839l-0.84,7.536l7.537,0.839l0.839,-7.536Z" style="fill:#979797;"/><path d="M83.578,24.341l-35.274,-3.929l-1.234,11.081l35.274,3.929l1.234,-11.081Z" style="fill:#979797;"/><path d="M80.217,54.519l-35.274,-3.929l-1.235,11.081l35.275,3.929l1.234,-11.081Z" style="fill:#979797;"/><path d="M65.207,38.055l-18.637,-2.076l-0.207,1.859l18.637,2.076l0.207,-1.859Z" style="fill:#979797;"/><path d="M66.438,42.217l-20.311,-2.263l-0.207,1.86l20.31,2.262l0.208,-1.859Z" style="fill:#979797;"/><path d="M68.279,46.446l-22.595,-2.516l-0.207,1.859l22.594,2.517l0.208,-1.86Z" style="fill:#979797;"/></g><g><path d="M101.245,21.84c0.776,-3.552 -1.477,-7.066 -5.029,-7.842l-30.627,-6.695c-3.551,-0.776 -7.065,1.477 -7.842,5.029l-11.11,50.824c-0.776,3.552 1.477,7.066 5.029,7.842l30.627,6.695c3.552,0.777 7.065,-1.477 7.842,-5.028l11.11,-50.825Z" style="fill:#fff;stroke:#000;stroke-width:5px;"/><path d="M70.238,13.412l-7.408,-1.619l-1.619,7.407l7.408,1.62l1.619,-7.408Z" style="fill:#979797;"/><path d="M94.744,31.012l-34.674,-7.579l-2.38,10.892l34.673,7.58l2.381,-10.893Z" style="fill:#ff5130;"/><path d="M88.26,60.677l-34.674,-7.58l-2.381,10.892l34.674,7.58l2.381,-10.892Z" style="fill:#ff5130;"/><path d="M75.046,42.74l-18.32,-4.005l-0.4,1.828l18.32,4.004l0.4,-1.827Z" style="fill:#979797;"/><path d="M75.836,47.007l-19.965,-4.364l-0.399,1.827l19.964,4.364l0.4,-1.827Z" style="fill:#979797;"/><path d="M77.227,51.405l-22.21,-4.855l-0.399,1.828l22.209,4.855l0.4,-1.828Z" style="fill:#979797;"/></g></g></svg>